<svg width="34" height="28" viewBox="0 0 34 28" fill="none" xmlns="http://www.w3.org/2000/svg">
<mask id="path-1-inside-1" fill="white">
<path fill-rule="evenodd" clip-rule="evenodd" d="M32.8667 0C33.4923 0 34 0.507733 34 1.13333V26.0667C34 26.6923 33.4923 27.2 32.8667 27.2H1.13334C0.507732 27.2 0 26.6923 0 26.0667V1.13333C0 0.507733 0.507732 0 1.13334 0H32.8667ZM2.26667 24.9333V2.26667H31.7333V24.9333H2.26667ZM4.53323 10.1623C4.53323 11.4679 5.02963 12.6602 5.84337 13.5578V20.9664C5.84337 21.4254 6.11877 21.8379 6.54263 22.0136C6.9665 22.1892 7.45497 22.0918 7.7791 21.7665L9.59583 19.9452L11.4126 21.7665C11.7367 22.0918 12.224 22.1892 12.6479 22.0136C13.0718 21.8379 13.3483 21.4254 13.3483 20.9664V13.5578C14.162 12.6602 14.6573 11.4679 14.6573 10.1623C14.6573 7.3675 12.3895 5.0997 9.59583 5.0997C6.80103 5.0997 4.53323 7.3675 4.53323 10.1623ZM8.11003 15.0481C8.51917 15.1535 8.9997 15.2215 9.55957 15.2238H9.59583H9.63097C10.192 15.2215 10.6725 15.1535 11.0816 15.0481V18.226L10.3982 17.5403C10.1852 17.3272 9.89617 17.2071 9.59583 17.2071C9.29437 17.2071 9.00537 17.3272 8.79343 17.5403L8.11003 18.226V15.0481ZM12.3906 10.1623C12.3906 10.9828 12.037 11.7206 11.4726 12.2329L11.4466 12.2556C10.9581 12.6885 10.3166 12.9526 9.6151 12.9571H9.59583H9.57657C8.8739 12.9526 8.23243 12.6885 7.74397 12.2556C7.73603 12.2476 7.72697 12.2397 7.7179 12.2329C7.15463 11.7206 6.7999 10.9828 6.7999 10.1623C6.7999 8.6187 8.05223 7.36636 9.59583 7.36636C11.1383 7.36636 12.3906 8.6187 12.3906 10.1623ZM16.9999 12.4668H28.3332C28.9588 12.4668 29.4666 11.9591 29.4666 11.3335C29.4666 10.7079 28.9588 10.2002 28.3332 10.2002H16.9999C16.3743 10.2002 15.8666 10.7079 15.8666 11.3335C15.8666 11.9591 16.3743 12.4668 16.9999 12.4668ZM28.3332 17H16.9999C16.3743 17 15.8666 16.4923 15.8666 15.8667C15.8666 15.2411 16.3743 14.7334 16.9999 14.7334H28.3332C28.9588 14.7334 29.4666 15.2411 29.4666 15.8667C29.4666 16.4923 28.9588 17 28.3332 17Z"/>
</mask>
<path d="M2.26667 2.26667H1.26667V1.26667H2.26667V2.26667ZM2.26667 24.9333V25.9333H1.26667V24.9333H2.26667ZM31.7333 2.26667V1.26667H32.7333V2.26667H31.7333ZM31.7333 24.9333H32.7333V25.9333H31.7333V24.9333ZM5.84337 13.5578L6.58424 12.8861L6.84337 13.172V13.5578H5.84337ZM7.7791 21.7665L7.07076 21.0606L7.07111 21.0603L7.7791 21.7665ZM9.59583 19.9452L8.88785 19.239L9.59583 18.5293L10.3038 19.239L9.59583 19.9452ZM11.4126 21.7665L12.1206 21.0603L12.1209 21.0606L11.4126 21.7665ZM13.3483 13.5578H12.3483V13.172L12.6074 12.8861L13.3483 13.5578ZM9.55957 15.2238V16.2238L9.55552 16.2238L9.55957 15.2238ZM8.11003 15.0481H7.11003V13.7578L8.3595 14.0797L8.11003 15.0481ZM9.63097 15.2238L9.63501 16.2238H9.63097V15.2238ZM11.0816 15.0481L10.8322 14.0797L12.0816 13.7578V15.0481H11.0816ZM11.0816 18.226H12.0816V20.6458L10.3734 18.9319L11.0816 18.226ZM10.3982 17.5403L11.1053 16.8332L11.1065 16.8344L10.3982 17.5403ZM8.79343 17.5403L9.50242 18.2455L9.50171 18.2462L8.79343 17.5403ZM8.11003 18.226L8.81831 18.9319L7.11003 20.6458V18.226H8.11003ZM11.4726 12.2329L12.1447 12.9734L12.1368 12.9805L12.1288 12.9875L11.4726 12.2329ZM11.4466 12.2556L10.7833 11.5072L10.7904 11.501L11.4466 12.2556ZM9.6151 12.9571L9.62156 13.9571H9.6151V12.9571ZM9.57657 12.9571V13.9571L9.57012 13.9571L9.57657 12.9571ZM7.74397 12.2556L7.08068 13.0039L7.05813 12.9839L7.03682 12.9626L7.74397 12.2556ZM7.7179 12.2329L7.11795 13.0329L7.08009 13.0045L7.04508 12.9727L7.7179 12.2329ZM33 1.13333C33 1.06002 32.94 1 32.8667 1V-1C34.0446 -1 35 -0.0445522 35 1.13333H33ZM33 26.0667V1.13333H35V26.0667H33ZM32.8667 26.2C32.94 26.2 33 26.14 33 26.0667H35C35 27.2445 34.0446 28.2 32.8667 28.2V26.2ZM1.13334 26.2H32.8667V28.2H1.13334V26.2ZM1 26.0667C1 26.14 1.06002 26.2 1.13334 26.2V28.2C-0.0445518 28.2 -1 27.2445 -1 26.0667H1ZM1 1.13333V26.0667H-1V1.13333H1ZM1.13334 1C1.06002 1 1 1.06002 1 1.13333H-1C-1 -0.0445522 -0.0445518 -1 1.13334 -1V1ZM32.8667 1H1.13334V-1H32.8667V1ZM3.26667 2.26667V24.9333H1.26667V2.26667H3.26667ZM31.7333 3.26667H2.26667V1.26667H31.7333V3.26667ZM30.7333 24.9333V2.26667H32.7333V24.9333H30.7333ZM2.26667 23.9333H31.7333V25.9333H2.26667V23.9333ZM5.1025 14.2294C4.1287 13.1552 3.53323 11.726 3.53323 10.1623H5.53323C5.53323 11.2098 5.93057 12.1651 6.58424 12.8861L5.1025 14.2294ZM4.84337 20.9664V13.5578H6.84337V20.9664H4.84337ZM6.15977 22.9374C5.36198 22.6067 4.84337 21.8294 4.84337 20.9664H6.84337C6.84337 21.0213 6.87555 21.0691 6.9255 21.0898L6.15977 22.9374ZM8.48744 22.4724C7.87733 23.0846 6.95796 23.2682 6.15977 22.9374L6.9255 21.0898C6.97504 21.1103 7.03261 21.0989 7.07076 21.0606L8.48744 22.4724ZM10.3038 20.6515L8.48709 22.4727L7.07111 21.0603L8.88785 19.239L10.3038 20.6515ZM10.7046 22.4727L8.88785 20.6515L10.3038 19.239L12.1206 21.0603L10.7046 22.4727ZM13.0308 22.9374C12.2322 23.2683 11.3141 23.0843 10.7042 22.4724L12.1209 21.0606C12.1593 21.0992 12.2159 21.1101 12.265 21.0898L13.0308 22.9374ZM14.3483 20.9664C14.3483 21.8311 13.827 22.6074 13.0308 22.9374L12.265 21.0898C12.3166 21.0684 12.3483 21.0196 12.3483 20.9664H14.3483ZM14.3483 13.5578V20.9664H12.3483V13.5578H14.3483ZM15.6573 10.1623C15.6573 11.7254 15.0634 13.1548 14.0892 14.2294L12.6074 12.8861C13.2607 12.1655 13.6573 11.2104 13.6573 10.1623H15.6573ZM9.59583 4.0997C12.9419 4.0997 15.6573 6.81536 15.6573 10.1623H13.6573C13.6573 7.91964 11.8371 6.0997 9.59583 6.0997V4.0997ZM3.53323 10.1623C3.53323 6.81521 6.24875 4.0997 9.59583 4.0997V6.0997C7.35332 6.0997 5.53323 7.91978 5.53323 10.1623H3.53323ZM9.55552 16.2238C8.91625 16.2212 8.35311 16.1434 7.86056 16.0165L8.3595 14.0797C8.68522 14.1636 9.08315 14.2218 9.56362 14.2238L9.55552 16.2238ZM9.59583 16.2238H9.55957V14.2238H9.59583V16.2238ZM9.63097 16.2238H9.59583V14.2238H9.63097V16.2238ZM11.3311 16.0165C10.8385 16.1434 10.2753 16.2212 9.63501 16.2238L9.62692 14.2238C10.1086 14.2218 10.5065 14.1636 10.8322 14.0797L11.3311 16.0165ZM10.0816 18.226V15.0481H12.0816V18.226H10.0816ZM11.1065 16.8344L11.7899 17.52L10.3734 18.9319L9.68996 18.2462L11.1065 16.8344ZM9.59583 16.2071C10.1628 16.2071 10.7057 16.4336 11.1053 16.8332L9.69113 18.2474C9.66459 18.2209 9.62953 18.2071 9.59583 18.2071V16.2071ZM8.08444 16.8351C8.48442 16.433 9.02873 16.2071 9.59583 16.2071V18.2071C9.56 18.2071 9.52631 18.2215 9.50242 18.2455L8.08444 16.8351ZM7.40176 17.52L8.08516 16.8344L9.50171 18.2462L8.81831 18.9319L7.40176 17.52ZM9.11003 15.0481V18.226H7.11003V15.0481H9.11003ZM10.8006 11.4924C11.1651 11.1615 11.3906 10.6889 11.3906 10.1623H13.3906C13.3906 11.2768 12.9089 12.2798 12.1447 12.9734L10.8006 11.4924ZM10.7904 11.501L10.8164 11.4783L12.1288 12.9875L12.1028 13.0102L10.7904 11.501ZM9.60864 11.9571C10.0589 11.9542 10.4692 11.7856 10.7833 11.5072L12.1099 13.0039C11.4471 13.5914 10.5744 13.9509 9.62156 13.9571L9.60864 11.9571ZM9.59583 11.9571H9.6151V13.9571H9.59583V11.9571ZM9.57657 11.9571H9.59583V13.9571H9.57657V11.9571ZM8.40725 11.5072C8.72122 11.7855 9.13141 11.9542 9.58302 11.9571L9.57012 13.9571C8.61639 13.9509 7.74365 13.5915 7.08068 13.0039L8.40725 11.5072ZM8.31785 11.4329C8.36699 11.4697 8.41169 11.5091 8.45112 11.5485L7.03682 12.9626C7.06038 12.9862 7.08694 13.0097 7.11795 13.0329L8.31785 11.4329ZM7.7999 10.1623C7.7999 10.688 8.02591 11.1613 8.39072 11.4931L7.04508 12.9727C6.28335 12.2799 5.7999 11.2777 5.7999 10.1623H7.7999ZM9.59583 8.36637C8.60452 8.36637 7.7999 9.17098 7.7999 10.1623H5.7999C5.7999 8.06641 7.49995 6.36636 9.59583 6.36636V8.36637ZM11.3906 10.1623C11.3906 9.17072 10.5858 8.36637 9.59583 8.36637V6.36636C11.6908 6.36636 13.3906 8.06668 13.3906 10.1623H11.3906ZM28.3332 13.4668H16.9999V11.4668H28.3332V13.4668ZM30.4666 11.3335C30.4666 12.5114 29.5111 13.4668 28.3332 13.4668V11.4668C28.4065 11.4668 28.4666 11.4068 28.4666 11.3335H30.4666ZM28.3332 9.20015C29.5111 9.20015 30.4666 10.1556 30.4666 11.3335H28.4666C28.4666 11.2602 28.4065 11.2002 28.3332 11.2002V9.20015ZM16.9999 9.20015H28.3332V11.2002H16.9999V9.20015ZM14.8666 11.3335C14.8666 10.1556 15.822 9.20015 16.9999 9.20015V11.2002C16.9266 11.2002 16.8666 11.2602 16.8666 11.3335H14.8666ZM16.9999 13.4668C15.822 13.4668 14.8666 12.5114 14.8666 11.3335H16.8666C16.8666 11.4068 16.9266 11.4668 16.9999 11.4668V13.4668ZM16.9999 16H28.3332V18H16.9999V16ZM16.8666 15.8667C16.8666 15.94 16.9266 16 16.9999 16V18C15.822 18 14.8666 17.0446 14.8666 15.8667H16.8666ZM16.9999 15.7334C16.9266 15.7334 16.8666 15.7934 16.8666 15.8667H14.8666C14.8666 14.6888 15.822 13.7334 16.9999 13.7334V15.7334ZM28.3332 15.7334H16.9999V13.7334H28.3332V15.7334ZM28.4666 15.8667C28.4666 15.7934 28.4065 15.7334 28.3332 15.7334V13.7334C29.5111 13.7334 30.4666 14.6888 30.4666 15.8667H28.4666ZM28.3332 16C28.4065 16 28.4666 15.94 28.4666 15.8667H30.4666C30.4666 17.0446 29.5111 18 28.3332 18V16Z" fill="#0090F1" mask="url(#path-1-inside-1)"/>
</svg>
