<svg width="34" height="37" viewBox="0 0 34 37" fill="none" xmlns="http://www.w3.org/2000/svg">
<path fill-rule="evenodd" clip-rule="evenodd" d="M16.9995 4.40732C17.5157 4.40732 17.9439 3.97918 17.9439 3.46289V0.944425C17.9439 0.428139 17.5157 0 16.9995 0C16.4832 0 16.055 0.428139 16.055 0.944425V3.46289C16.055 3.97918 16.4832 4.40732 16.9995 4.40732ZM33.0557 16.0553H30.5372C30.0209 16.0553 29.5928 16.4834 29.5928 16.9997C29.5928 17.516 30.0209 17.9441 30.5372 17.9441H33.0557C33.572 17.9441 34.0001 17.516 34.0001 16.9997C34.0001 16.4834 33.572 16.0553 33.0557 16.0553ZM0.944425 16.0553H3.46289C3.97918 16.0553 4.40732 16.4834 4.40732 16.9997C4.40732 17.516 3.97918 17.9441 3.46289 17.9441H0.944425C0.428139 17.9441 0 17.516 0 16.9997C0 16.4834 0.428139 16.0553 0.944425 16.0553ZM27.6778 4.97375L25.9023 6.74927C25.5371 7.11445 25.5371 7.71888 25.9023 8.08406C26.2674 8.44924 26.8719 8.44924 27.237 8.08406L29.0126 6.30854C29.3777 5.94337 29.3777 5.33893 29.0126 4.97375C28.6474 4.60858 28.0555 4.60858 27.6778 4.97375ZM4.9868 27.6785L6.76232 25.903C7.1275 25.5378 7.73193 25.5378 8.09711 25.903C8.46228 26.2681 8.46228 26.8726 8.09711 27.2378L6.32159 29.0133C5.95641 29.3785 5.35198 29.3785 4.9868 29.0133C4.62162 28.6481 4.62162 28.0437 4.9868 27.6785ZM27.237 25.903C26.8719 25.5378 26.2674 25.5378 25.9023 25.903C25.5371 26.2681 25.5371 26.8726 25.9023 27.2378L27.6778 29.0133C28.043 29.3785 28.6474 29.3785 29.0126 29.0133C29.3777 28.6481 29.3777 28.0437 29.0126 27.6785L27.237 25.903ZM8.09642 8.09665C7.73124 8.46183 7.12681 8.46183 6.76163 8.09665L4.97352 6.30854C4.60834 5.94336 4.60834 5.33893 4.97352 4.97375C5.3387 4.60858 5.94313 4.60858 6.30831 4.97375L8.09642 6.76187C8.46159 7.12704 8.46159 7.73148 8.09642 8.09665ZM24.2663 23.6354C26.0796 21.7969 27.1877 19.2784 27.1877 16.4955C27.1877 10.8668 22.6293 6.29575 16.9879 6.29575C11.3591 6.29575 6.7881 10.8668 6.7881 16.4955C6.7881 19.2784 7.90882 21.7969 9.70952 23.6354C10.7673 24.7057 11.9761 26.2924 12.4169 27.8412C12.4295 27.8727 12.4421 27.901 12.4546 27.9294C12.4672 27.9577 12.4798 27.986 12.4924 28.0175C12.3665 28.3071 12.2784 28.6345 12.2784 28.9619V31.9589C12.2784 32.8404 12.8324 33.5959 13.6257 33.873L14.2302 35.0189C14.5953 35.7114 15.4138 36.2025 16.1946 36.2025H17.7938C18.5745 36.2025 19.393 35.6988 19.7582 35.0189L20.3626 33.873C21.156 33.5833 21.71 32.8404 21.71 31.9589V28.9619C21.71 28.6345 21.6219 28.3197 21.4834 28.0301C21.4917 28.0091 21.5015 27.9895 21.5113 27.9699C21.5309 27.9308 21.5505 27.8916 21.5589 27.8412C21.9996 26.2924 23.2085 24.7183 24.2663 23.6354ZM19.8338 31.9589C19.8338 32.0471 19.7582 32.0974 19.6826 32.11C19.3552 32.1226 19.053 32.3241 18.9019 32.6137L18.096 34.15C18.0582 34.2255 17.8819 34.3263 17.8064 34.3263H16.2072C16.1316 34.3263 15.9553 34.2255 15.9175 34.15L15.1116 32.6137C14.9605 32.3241 14.6583 32.1226 14.3309 32.11C14.2554 32.11 14.1798 32.0471 14.1798 31.9589V28.9619H19.8463V31.9589H19.8338ZM19.8338 27.0731H14.1672C13.5124 24.9954 11.9635 23.2072 11.0695 22.3132C9.53323 20.7517 8.68954 18.6866 8.68954 16.4955C8.68954 11.9119 12.4169 8.1846 17.0005 8.1846C21.5841 8.1846 25.3114 11.9119 25.3114 16.4955C25.3114 18.6866 24.4677 20.7517 22.9315 22.3132C22.0374 23.2072 20.4886 24.9954 19.8338 27.0731ZM10.6032 14.8839C11.2202 12.4536 13.1091 10.6151 15.5268 10.061C16.0431 9.94771 16.5468 10.2625 16.6601 10.7662C16.786 11.2825 16.4586 11.7862 15.9549 11.8995C14.2298 12.2899 12.8824 13.6121 12.4417 15.3372C12.3283 15.7654 11.9506 16.055 11.5224 16.055C11.4343 16.055 11.3587 16.055 11.2832 16.0298C10.7795 15.9039 10.4773 15.3876 10.6032 14.8839Z" fill="#0090F1"/>
</svg>
