<svg width="67" height="67" viewBox="0 0 67 67" fill="none" xmlns="http://www.w3.org/2000/svg">
<path opacity="0.1" fill-rule="evenodd" clip-rule="evenodd" d="M33.4749 1.15508H33.4889C51.3387 1.15508 65.8086 15.6251 65.8086 33.4747V33.525C65.8086 51.3747 51.3387 65.8448 33.4889 65.8448H33.4749C15.6251 65.8448 1.15515 51.3747 1.15515 33.525V33.4747C1.15515 15.6251 15.6251 1.15508 33.4749 1.15508Z" fill="#F60002"/>
<path fill-rule="evenodd" clip-rule="evenodd" d="M28.2497 27.0384C27.9471 26.9986 27.6583 27.1755 27.5552 27.4627L24.0602 37.207H18.2344C17.1903 35.6485 16.4463 34.0966 16.2013 32.6038C15.6715 29.3514 16.1883 26.6693 17.7403 24.6329C19.3053 22.5771 21.688 21.404 25.0248 21.0471C25.3477 21.0154 25.6374 21 25.931 21C28.2878 21 30.6706 21.8786 32.4976 23.3633C34.327 21.8786 36.7081 21 39.0698 21C39.3602 21 39.6531 21.0154 39.9752 21.0479C43.312 21.4048 45.6923 22.5779 47.2597 24.6337C48.8117 26.6701 49.3285 29.3522 48.7987 32.6046C48.5569 34.0746 47.8316 35.6023 46.8127 37.1364H39.8689C39.5849 37.1364 39.3334 37.3214 39.2491 37.5932L38.6309 39.5898L37.2525 29.7651C37.2087 29.456 36.9515 29.2215 36.64 29.2069C36.3284 29.194 36.0502 29.4017 35.978 29.7051L34.1315 37.4634L33.0501 32.7717C32.9835 32.4821 32.7288 32.2752 32.4319 32.2687C32.1333 32.2614 31.8713 32.4578 31.7917 32.7441L29.8495 39.7447L28.8127 27.6266C28.7868 27.3223 28.5523 27.0781 28.2497 27.0384ZM38.339 43.2048C38.6416 43.2291 38.9215 43.0401 39.0116 42.7497L40.3461 38.4344H45.8839C43.7211 41.2699 40.7355 44.0802 38.1224 46.5384C38.1224 46.5384 35.9141 48.7548 35.2513 49.3235C34.754 49.7519 33.6709 50.6126 32.5002 50.6126C31.3271 50.6126 30.2473 49.7519 29.7467 49.3235C29.0839 48.7556 26.8756 46.5384 26.8756 46.5384L26.8735 46.5364C24.2828 44.099 21.3258 41.317 19.1684 38.5058H24.5164C24.7906 38.5058 25.0348 38.3338 25.1273 38.0759L27.7737 30.6997L28.8648 43.4498C28.8916 43.7621 29.1391 44.0112 29.4514 44.0404C29.4717 44.0428 29.492 44.0437 29.5122 44.0437C29.8011 44.0437 30.0582 43.8514 30.1369 43.5682L32.3598 35.5552L33.4892 40.4554C33.5573 40.749 33.8177 40.9575 34.1195 40.9583H34.122C34.4221 40.9583 34.6834 40.7523 34.7531 40.4594L36.4447 33.3518L37.7484 42.6483C37.7906 42.9492 38.0364 43.1805 38.339 43.2048Z" fill="#F60002" fill-opacity="0.65"/>
</svg>
