<svg width="67" height="67" viewBox="0 0 67 67" fill="none" xmlns="http://www.w3.org/2000/svg">
<path opacity="0.1" fill-rule="evenodd" clip-rule="evenodd" d="M33.4749 1.15508H33.4889C51.3387 1.15508 65.8086 15.6251 65.8086 33.4747V33.525C65.8086 51.3747 51.3387 65.8448 33.4889 65.8448H33.4749C15.6251 65.8448 1.15515 51.3747 1.15515 33.525V33.4747C1.15515 15.6251 15.6251 1.15508 33.4749 1.15508Z" fill="#3D5AFE"/>
<path d="M34.9375 22.9375C36.725 22.9375 38.1875 21.475 38.1875 19.6875C38.1875 17.9 36.725 16.4375 34.9375 16.4375C33.15 16.4375 31.6875 17.9 31.6875 19.6875C31.6875 21.475 33.15 22.9375 34.9375 22.9375ZM28.925 28.4625L24.375 51.375H27.7875L30.7125 38.375L34.125 41.625V51.375H37.375V39.1875L33.9625 35.9375L34.9375 31.0625C37.05 33.5 40.3 35.125 43.875 35.125V31.875C40.7875 31.875 38.1875 30.25 36.8875 27.975L35.2625 25.375C34.6125 24.4 33.6375 23.75 32.5 23.75C32.0125 23.75 31.6875 23.9125 31.2 23.9125L22.75 27.4875V35.125H26V29.6L28.925 28.4625Z" fill="#3D5AFE"/>
</svg>
