<svg width="67" height="67" viewBox="0 0 67 67" fill="none" xmlns="http://www.w3.org/2000/svg">
<path opacity="0.1" fill-rule="evenodd" clip-rule="evenodd" d="M33.4749 1.15508H33.4889C51.3387 1.15508 65.8086 15.6251 65.8086 33.4747V33.525C65.8086 51.3747 51.3387 65.8448 33.4889 65.8448H33.4749C15.6251 65.8448 1.15515 51.3747 1.15515 33.525V33.4747C1.15515 15.6251 15.6251 1.15508 33.4749 1.15508Z" fill="#11C15B"/>
<path d="M48.7237 40.4558C44.0892 47.6254 34.5265 49.7111 27.3148 45.0313C20.1791 40.3914 18.1273 30.8232 22.7617 23.6536C24.8926 20.3808 28.1771 18.0297 31.9621 17.068C27.3643 24.249 29.45 33.8117 36.6847 38.4182C39.8543 40.4807 43.7218 41.2647 47.4859 40.656L48.7237 40.4558Z" fill="#11C15B"/>
</svg>
