<svg width="30" height="30" viewBox="0 0 30 30" fill="none" xmlns="http://www.w3.org/2000/svg">
    <path d="M28.818 15C28.818 23.0303 22.6097 29.5 14.9998 29.5C7.38992 29.5 1.18164 23.0303 1.18164 15C1.18164 6.9697 7.38992 0.5 14.9998 0.5C22.6097 0.5 28.818 6.9697 28.818 15Z"
          fill="#FFF4E7" stroke="white"/>
    <path d="M10.9434 10.75H16.9888C17.5901 10.75 18.1667 11.0002 18.5919 11.4456C19.017 11.891 19.2559 12.4951 19.2559 13.125C19.2559 13.7549 19.017 14.359 18.5919 14.8044C18.1667 15.2498 17.5901 15.5 16.9888 15.5C17.5901 15.5 18.1667 15.7502 18.5919 16.1956C19.017 16.641 19.2559 17.2451 19.2559 17.875C19.2559 18.5049 19.017 19.109 18.5919 19.5544C18.1667 19.9998 17.5901 20.25 16.9888 20.25H10.9434"
          stroke="#F04F47" stroke-linecap="round" stroke-linejoin="round"/>
    <path d="M12.4551 10.75V20.25" stroke="#F04F47" stroke-linecap="round" stroke-linejoin="round"/>
    <path d="M12.4551 15.5H16.9892" stroke="#F04F47" stroke-linecap="round" stroke-linejoin="round"/>
    <path d="M13.21 8.375V10.75" stroke="#F04F47" stroke-linecap="round" stroke-linejoin="round"/>
    <path d="M16.2334 8.375V10.75" stroke="#F04F47" stroke-linecap="round" stroke-linejoin="round"/>
    <path d="M13.21 20.25V22.625" stroke="#F04F47" stroke-linecap="round" stroke-linejoin="round"/>
    <path d="M16.2334 20.25V22.625" stroke="#F04F47" stroke-linecap="round" stroke-linejoin="round"/>
</svg>
