<svg width="10" height="13" viewBox="0 0 10 13" fill="none" xmlns="http://www.w3.org/2000/svg">
<path d="M5.94413 0.675532L5.94002 0.656771L5.94002 8.6989L8.47822 6.17075C8.60214 6.04695 8.77 5.97904 8.94619 5.97904C9.12238 5.97904 9.28908 6.04695 9.41329 6.17075L9.80756 6.56413C9.93148 6.68783 10 6.85267 10 7.02845C10 7.20433 9.93197 7.36926 9.80805 7.49296L5.46705 11.8267C5.34264 11.9509 5.17692 12.0188 5.00064 12.0183C4.82337 12.0188 4.65756 11.9509 4.53334 11.8267L0.191948 7.49296C0.0681265 7.36926 -2.10422e-07 7.20442 -2.18114e-07 7.02845C-2.25797e-07 6.85267 0.0682237 6.68783 0.191948 6.56413L0.58622 6.17075C0.709944 6.04695 0.875169 5.97904 1.05136 5.97904C1.22745 5.97904 1.38396 6.04695 1.50779 6.17075L4.06018 8.72743L4.06018 0.666541C4.06018 0.30433 4.37291 -3.69473e-05 4.73557 -3.69632e-05L5.29321 -3.69876e-05C5.65586 -3.70034e-05 5.94413 0.313319 5.94413 0.675532Z" fill="#FF5252"/>
</svg>
