<svg width="60" height="60" viewBox="0 0 60 60" fill="none" xmlns="http://www.w3.org/2000/svg">
<path opacity="0.1" fill-rule="evenodd" clip-rule="evenodd" d="M29.9775 1.0344H29.99C45.9749 1.0344 58.9331 13.9927 58.9331 29.9774V30.0224C58.9331 46.0072 45.9749 58.9655 29.99 58.9655H29.9775C13.9926 58.9655 1.03446 46.0072 1.03446 30.0224V29.9774C1.03446 13.9927 13.9926 1.0344 29.9775 1.0344Z" fill="#2717A4"/>
<path d="M30.2501 45C31.4467 44.4533 40.1534 39.1933 41.6334 35.6867C43.0668 32.2967 42.2901 17.4233 42.2901 17.4233L37.7367 16.08C32.8501 14.64 27.6534 14.64 22.7667 16.08L18.2101 17.4233C18.2101 17.4233 17.4334 32.2967 18.8667 35.6867C20.3501 39.1933 29.0567 44.4533 30.2501 45ZM38.1734 23.26C38.4568 23.4967 38.4967 23.9167 38.2601 24.2L34.9034 28.24C34.7701 28.4 34.5801 28.48 34.3901 28.48C34.2401 28.48 34.0901 28.43 33.9634 28.3267C33.6801 28.09 33.6401 27.67 33.8767 27.3867L37.2334 23.3433C37.4701 23.0633 37.8901 23.0233 38.1734 23.26ZM30.9001 27.2633C30.9001 27.1067 30.9534 26.9567 31.0534 26.8367L35.4434 21.5533C35.6801 21.27 36.1001 21.23 36.3834 21.4667C36.6667 21.7033 36.7067 22.1233 36.4701 22.4067L32.2367 27.5067V37.1633C32.2367 37.53 31.9367 37.83 31.5701 37.83C31.2034 37.83 30.9034 37.53 30.9034 37.1633V27.2633H30.9001ZM24.1201 21.4667C24.4034 21.23 24.8234 21.27 25.0601 21.5533L29.4501 26.8367C29.5501 26.9567 29.6034 27.1067 29.6034 27.2633V37.1633C29.6034 37.53 29.3034 37.83 28.9368 37.83C28.5701 37.83 28.2701 37.53 28.2701 37.1633V27.5067L24.0367 22.4067C23.7967 22.1233 23.8367 21.7033 24.1201 21.4667ZM22.3267 23.26C22.6101 23.0233 23.0301 23.0633 23.2667 23.3467L26.6234 27.39C26.8601 27.6733 26.8201 28.0933 26.5367 28.33C26.4134 28.4333 26.2601 28.4833 26.1101 28.4833C25.9201 28.4833 25.7301 28.4 25.5967 28.2433L22.2401 24.1967C22.0067 23.9133 22.0434 23.4933 22.3267 23.26Z" fill="#2717A4"/>
</svg>
