<svg width="46" height="46" viewBox="0 0 46 46" fill="none" xmlns="http://www.w3.org/2000/svg">
<circle cx="23" cy="23" r="23" fill="#00B1B8" fill-opacity="0.2"/>
<path fill-rule="evenodd" clip-rule="evenodd" d="M24.0176 12.0644V12.0648L24.0159 12.1792C24.0159 12.5089 24.012 12.8215 24.0052 13.1246C24.0046 13.1416 24.0043 13.159 24.004 13.1764C24.0038 13.1938 24.0035 13.2112 24.0029 13.2282C23.9955 13.5125 23.9853 13.7838 23.9735 14.0467C23.9723 14.0685 23.9713 14.0905 23.9703 14.1126C23.9693 14.1347 23.9684 14.1568 23.9672 14.1786C23.9548 14.4318 23.94 14.6754 23.923 14.9099C23.9202 14.9546 23.9168 14.9988 23.9134 15.0424C23.8959 15.2729 23.8772 15.4967 23.8562 15.7113C23.8533 15.7431 23.85 15.7741 23.8467 15.8057C23.8461 15.8112 23.8455 15.8168 23.8449 15.8223C23.8234 16.0387 23.8007 16.2494 23.7763 16.4516C23.7749 16.4635 23.7734 16.4751 23.7718 16.4867C23.7703 16.4983 23.7687 16.51 23.7673 16.5219C23.7441 16.7105 23.7203 16.8934 23.6953 17.0713C23.6932 17.0863 23.6912 17.1017 23.6892 17.1169C23.6869 17.1338 23.6847 17.1506 23.6823 17.167C23.6568 17.346 23.6308 17.5193 23.6042 17.6892C23.5987 17.7218 23.5936 17.7551 23.5885 17.7878C23.5868 17.7994 23.585 17.8109 23.5832 17.8223C23.5583 17.9781 23.5334 18.131 23.5084 18.2805L23.4971 18.3491L23.4858 18.2805C23.4647 18.154 23.444 18.0251 23.423 17.8944C23.4192 17.8706 23.4154 17.8468 23.4116 17.8229C23.4079 17.8002 23.4044 17.7774 23.4008 17.7546C23.3973 17.7318 23.3937 17.709 23.3901 17.6864C23.364 17.517 23.3379 17.3448 23.3125 17.1664C23.3102 17.1506 23.3081 17.1346 23.3059 17.1186C23.3038 17.1026 23.3017 17.0866 23.2994 17.0707C23.2751 16.8929 23.2507 16.7099 23.2275 16.5213C23.2241 16.4975 23.2213 16.4748 23.2184 16.4511C23.1946 16.2488 23.1714 16.0381 23.1499 15.8218C23.1493 15.8162 23.1487 15.8106 23.1481 15.805C23.1448 15.7735 23.1415 15.7425 23.1386 15.7108C23.1176 15.4961 23.0989 15.2724 23.0814 15.0418C23.0789 15.0032 23.076 14.965 23.073 14.9261L23.0717 14.9093C23.0547 14.6754 23.04 14.4318 23.0276 14.1798C23.0264 14.1569 23.0254 14.1339 23.0244 14.1109C23.0234 14.0888 23.0224 14.0666 23.0213 14.0444C23.0094 13.7821 22.9992 13.5114 22.9924 13.2276C22.9913 13.1937 22.9907 13.158 22.9902 13.124C22.9839 12.821 22.9794 12.5083 22.9794 12.1787V12.0654C22.9794 11.9861 22.9794 11.9034 22.9788 11.8167C22.9788 11.7965 22.9782 11.7759 22.9776 11.7551C22.9772 11.7409 22.9768 11.7267 22.9766 11.7125C22.9754 11.6451 22.9737 11.5777 22.9703 11.5075C22.9694 11.4856 22.9678 11.4635 22.9662 11.4412C22.9651 11.4254 22.9639 11.4096 22.963 11.3936C22.9585 11.3217 22.9528 11.2492 22.9449 11.1744C22.9411 11.1371 22.9364 11.0999 22.9316 11.0621L22.9307 11.0549C22.9216 10.9813 22.9092 10.9071 22.8956 10.8323C22.8877 10.7881 22.8797 10.7451 22.8701 10.7009C22.8548 10.6312 22.8361 10.5627 22.8163 10.493C22.813 10.4815 22.8098 10.47 22.8066 10.4585C22.7959 10.4204 22.7853 10.3824 22.7727 10.3441C22.7573 10.2983 22.7384 10.2529 22.7195 10.2076C22.7155 10.1979 22.7115 10.1883 22.7075 10.1787C22.6424 10.0121 22.5603 9.85299 22.4628 9.70402V7.5177C22.4628 7.23166 22.6945 7 22.9805 7H24.0165C24.302 7 24.5336 7.23166 24.5342 7.5177V9.70346C24.4362 9.85299 24.3546 10.0121 24.2895 10.1781C24.2834 10.1934 24.2771 10.2086 24.2708 10.2239C24.2543 10.2636 24.2379 10.3034 24.2244 10.3435C24.2117 10.3818 24.2011 10.4198 24.1905 10.458C24.1872 10.4694 24.184 10.4809 24.1808 10.4925L24.1768 10.5066C24.1589 10.5714 24.1412 10.6354 24.1269 10.7003C24.1173 10.7445 24.1094 10.7881 24.1015 10.8317C24.0879 10.9065 24.076 10.9807 24.0663 11.0543L24.0654 11.0615C24.0606 11.0993 24.0559 11.1366 24.0522 11.1738C24.0448 11.248 24.0386 11.3205 24.0341 11.393L24.0337 11.3974C24.031 11.4344 24.0283 11.4709 24.0267 11.5069C24.0239 11.5771 24.0216 11.6451 24.0205 11.7119C24.0202 11.7299 24.0197 11.7479 24.0193 11.7658C24.0189 11.7827 24.0185 11.7996 24.0182 11.8162C24.0176 11.9032 24.0176 11.9858 24.0176 12.0644ZM31.1905 34.3064C31.2913 34.2411 31.3895 34.1701 31.4878 34.0991L31.4879 34.099C31.5217 34.0746 31.5554 34.0502 31.5893 34.0261C31.6084 34.0124 31.6275 33.9988 31.6467 33.9853C31.6633 33.9737 31.6798 33.962 31.6964 33.9504C31.7823 33.89 31.8683 33.8296 31.9523 33.7644C32.0543 33.6853 32.1532 33.6011 32.2521 33.5168L32.3381 33.4438C32.3568 33.4281 32.3755 33.4124 32.3943 33.3968C32.4101 33.3837 32.426 33.3706 32.4418 33.3575L32.4419 33.3574C32.5223 33.2908 32.6029 33.2241 32.6813 33.1532C32.7808 33.0634 32.8769 32.9684 32.9731 32.8734L32.9732 32.8733L33.054 32.7936C33.0865 32.762 33.1191 32.7307 33.1518 32.6994L33.1518 32.6994C33.2269 32.6275 33.3018 32.5557 33.374 32.4803C33.4714 32.379 33.5652 32.273 33.6591 32.1668L33.6591 32.1668L33.7331 32.0833C33.7678 32.0444 33.8029 32.006 33.8379 31.9677C33.9024 31.897 33.9668 31.8265 34.0288 31.7531C34.1172 31.6481 34.2022 31.5394 34.287 31.4309C34.3157 31.3942 34.3444 31.3574 34.3732 31.3209C34.4056 31.2797 34.4384 31.239 34.4712 31.1983L34.4713 31.1981C34.5295 31.126 34.5876 31.0539 34.6433 30.9794C34.7317 30.8608 34.8161 30.7385 34.9003 30.6163L34.9747 30.5087C35.002 30.4695 35.0298 30.4306 35.0575 30.3917C35.1108 30.317 35.164 30.2423 35.2143 30.166C35.3003 30.0356 35.3815 29.9025 35.4627 29.7692L35.4628 29.769L35.5303 29.6585C35.5566 29.6159 35.5833 29.5736 35.6101 29.5313C35.6545 29.4612 35.6988 29.3912 35.7405 29.3198C35.8387 29.1512 35.9304 28.9795 36.0221 28.8078L36.0222 28.8076L36.0594 28.7381C36.0813 28.6972 36.1041 28.6564 36.127 28.6157L36.127 28.6156C36.1579 28.5605 36.1888 28.5054 36.2174 28.4498C36.3675 28.157 36.5091 27.8624 36.6416 27.5656C36.67 27.5021 36.6959 27.4381 36.7218 27.3741L36.7218 27.374C36.7388 27.3319 36.7559 27.2899 36.7736 27.2479L36.8195 27.1399L36.8195 27.1398C36.8862 26.9832 36.9529 26.8266 37.0132 26.6696C37.0464 26.5831 37.0758 26.4969 37.1053 26.4106C37.1216 26.3629 37.1379 26.3152 37.1548 26.2674C37.1615 26.2485 37.1683 26.2296 37.1751 26.2107C37.1827 26.1896 37.1903 26.1684 37.1979 26.1473L37.1979 26.1473C37.2431 26.022 37.2882 25.8967 37.3281 25.7718C37.3583 25.6774 37.3844 25.5836 37.4105 25.4895L37.4105 25.4895L37.4106 25.489C37.4232 25.4438 37.4357 25.3986 37.4488 25.3533C37.461 25.3112 37.4734 25.2691 37.4858 25.227L37.486 25.2263C37.5203 25.1103 37.5547 24.9941 37.5841 24.8792C37.6087 24.7836 37.6288 24.6889 37.6489 24.5942C37.6585 24.5491 37.6681 24.504 37.6781 24.4589C37.6874 24.4175 37.6969 24.3759 37.7064 24.3344C37.7301 24.2306 37.7539 24.1268 37.7733 24.0245C37.7036 22.5195 37.4408 21.0304 36.9911 19.5929C36.7475 19.0055 36.466 18.4352 36.1477 17.8852C36.0962 17.7917 36.0452 17.7005 35.9954 17.6116L34.9481 15.5182C33.9263 13.7697 32.5652 12.2432 30.9441 11.0294C29.983 10.258 28.8264 9.76858 27.6029 9.61565C27.4443 9.59923 27.2846 9.59073 27.1254 9.59017C26.5585 9.53976 25.9943 9.71591 25.5571 10.0807C25.5174 10.1232 25.4806 10.1679 25.4477 10.2155C25.407 10.2687 25.3701 10.3254 25.3373 10.3837C25.3294 10.3973 25.322 10.4115 25.3152 10.425C25.2835 10.4862 25.2552 10.5491 25.2308 10.6131L25.2261 10.6262C25.223 10.6348 25.2199 10.6435 25.2172 10.6522C25.1934 10.7196 25.1725 10.7875 25.1549 10.8578L25.1475 10.8912C25.1306 10.9637 25.1164 11.0368 25.1051 11.1104L25.1011 11.1382C25.0903 11.2135 25.0813 11.2894 25.075 11.3647L25.0733 11.3874C25.0671 11.4638 25.0626 11.5397 25.0597 11.6145L25.0592 11.6366C25.0541 11.7924 25.0541 11.9436 25.0547 12.0818V12.1786C25.0643 13.8059 24.9623 15.4321 24.7482 17.0458C25.437 16.2313 26.0906 15.3188 26.0906 14.25C26.0906 13.964 26.3223 13.7323 26.6083 13.7323C26.8943 13.7323 27.126 13.964 27.126 14.25C27.126 15.9025 26.0317 17.1566 25.1517 18.1651L25.1504 18.1667C24.8893 18.4658 24.6378 18.7563 24.4361 19.031C24.1745 20.3564 24.0346 21.7028 24.0187 23.0536C24.0187 26.8808 24.5341 29.9621 25.5508 32.2113C25.6233 32.3716 25.7043 32.5268 25.7893 32.6797C25.8156 32.7268 25.8433 32.7725 25.871 32.8182L25.8918 32.8525C25.945 32.9414 26 33.0286 26.0578 33.1147C26.1059 33.1861 26.154 33.2569 26.205 33.326C26.2449 33.381 26.287 33.4341 26.3289 33.4871L26.3444 33.5067C26.5834 33.8097 26.8496 34.0906 27.139 34.3461C27.1478 34.3537 27.1563 34.3615 27.1648 34.3693C27.1733 34.3771 27.1818 34.3849 27.1906 34.3925C27.288 34.4764 27.3882 34.5562 27.4908 34.6344C27.5208 34.657 27.5514 34.6797 27.582 34.7024C27.6833 34.7766 27.7859 34.8496 27.8912 34.9182C27.909 34.9297 27.9273 34.9406 27.9456 34.9515L27.9456 34.9515C27.9541 34.9565 27.9625 34.9616 27.9709 34.9667C27.9738 34.9684 27.9767 34.9702 27.9796 34.972C28.145 35.0762 28.316 35.1719 28.491 35.2614L28.5394 35.286L28.5394 35.286C28.607 35.3205 28.6747 35.355 28.7442 35.3866C28.7564 35.3921 28.769 35.3972 28.7816 35.4024C28.7923 35.4069 28.8032 35.4113 28.8139 35.416C28.9095 35.3881 29.004 35.3554 29.0986 35.3227L29.1662 35.2993C29.1803 35.2945 29.1945 35.2897 29.2087 35.2849C29.2271 35.2786 29.2455 35.2724 29.264 35.2662L29.264 35.2662C29.3702 35.2304 29.4764 35.1947 29.5808 35.1526C29.6957 35.106 29.8083 35.0526 29.9212 34.9992L29.9212 34.9992L30.0016 34.9612C30.0384 34.944 30.0751 34.9271 30.1119 34.9103L30.1121 34.9102C30.2086 34.8659 30.3051 34.8216 30.3998 34.772C30.5104 34.7138 30.6192 34.6487 30.7279 34.5837L30.728 34.5836L30.811 34.5341C30.852 34.5096 30.8934 34.4854 30.9348 34.4612C31.0203 34.4112 31.1062 34.361 31.1905 34.3064ZM9.73234 21.4643C9.78332 21.5068 9.8343 21.5487 9.88641 21.5895C9.92689 21.6205 9.96787 21.6501 10.0093 21.68L10.0094 21.68L10.0095 21.6801L10.0095 21.6801L10.0189 21.6869C10.0728 21.726 10.1277 21.7645 10.1838 21.8019C10.2209 21.8267 10.2588 21.8503 10.2968 21.874L10.2969 21.8741L10.3237 21.8908C10.3814 21.9265 10.4404 21.9622 10.5004 21.9962C10.5491 22.0239 10.5984 22.0506 10.6482 22.0766C10.71 22.1095 10.7728 22.1412 10.8368 22.1718C10.8889 22.1967 10.9422 22.221 10.9954 22.2454C11.0611 22.2749 11.1285 22.3032 11.1971 22.3309C11.252 22.3536 11.3087 22.3751 11.3653 22.3961C11.4367 22.4227 11.5092 22.4482 11.5834 22.4725C11.6417 22.4924 11.7012 22.5116 11.7612 22.5303C11.8377 22.5541 11.9164 22.5762 11.9957 22.5977L12.0255 22.6059C12.0781 22.6203 12.1312 22.6348 12.1854 22.6481C12.2676 22.6685 12.352 22.6878 12.4369 22.707C12.5032 22.7217 12.5695 22.7365 12.638 22.7506C12.7264 22.7682 12.8176 22.7846 12.9093 22.801L12.9622 22.8104L12.9622 22.8105C13.0151 22.8199 13.068 22.8294 13.1229 22.8379C13.2035 22.8508 13.2866 22.8622 13.3704 22.8736L13.3705 22.8736L13.4157 22.8798L13.4681 22.887C13.5248 22.8949 13.5815 22.9029 13.64 22.9098C13.7217 22.9196 13.8059 22.9284 13.8906 22.9372L13.9589 22.9443L14.0341 22.9522C14.0862 22.9577 14.1383 22.9632 14.1922 22.9681C14.2838 22.9764 14.3787 22.9832 14.474 22.99L14.54 22.9948C14.572 22.997 14.6036 22.9994 14.6353 23.0018L14.6357 23.0019H14.6357C14.6841 23.0055 14.7325 23.0092 14.7824 23.0123C14.9057 23.0202 15.0346 23.0258 15.1629 23.0314L15.167 23.0316L15.2323 23.0348L15.2324 23.0349C15.2913 23.0379 15.3497 23.0408 15.4106 23.0429C15.5537 23.0485 15.7035 23.0519 15.8528 23.0553L15.8552 23.0554C15.8851 23.056 15.9145 23.0569 15.944 23.0577L15.9442 23.0577L15.9444 23.0578L15.9446 23.0578C15.9892 23.0591 16.0338 23.0603 16.0801 23.061C16.3095 23.065 16.5462 23.0673 16.7903 23.0673C17.026 23.0673 17.2531 23.0622 17.4751 23.0548C17.5233 23.0529 17.5697 23.0506 17.6161 23.0482L17.6164 23.0482L17.6168 23.0482L17.6887 23.0446C17.8348 23.0378 17.9798 23.0304 18.1197 23.0202C18.2 23.0146 18.2781 23.0078 18.3561 23.001L18.3564 23.001C18.4828 22.9902 18.6068 22.9789 18.728 22.9659C18.805 22.9579 18.8809 22.9489 18.9557 22.9398C19.0746 22.9257 19.1902 22.9098 19.3035 22.8934C19.372 22.8837 19.4405 22.8735 19.5074 22.8633C19.6258 22.8447 19.7402 22.8248 19.8529 22.8039C19.874 22.8 19.8953 22.7962 19.9166 22.7925L19.9168 22.7925C19.9509 22.7865 19.985 22.7805 20.0177 22.7739C20.1638 22.745 20.3049 22.7155 20.4408 22.6844C20.4466 22.683 20.4527 22.6818 20.4588 22.6805L20.4589 22.6805C20.4685 22.6786 20.4783 22.6766 20.4873 22.6742C20.6374 22.6396 20.7801 22.6028 20.9172 22.566C20.9426 22.5593 20.9667 22.5523 20.9907 22.5453L20.9909 22.5453C21.0096 22.5398 21.0283 22.5344 21.0474 22.5292C21.1375 22.5037 21.2264 22.4782 21.3108 22.4521C21.3595 22.4368 21.406 22.4221 21.453 22.4068C21.5272 22.383 21.6003 22.3587 21.6694 22.3349C21.7019 22.3238 21.7338 22.3123 21.7654 22.3011L21.8008 22.2884C21.8665 22.2647 21.9305 22.2409 21.9916 22.2171L22.0294 22.2025L22.0295 22.2024C22.056 22.1922 22.0822 22.1821 22.1072 22.1718C22.1678 22.1474 22.2256 22.1231 22.2811 22.0993L22.2947 22.0936L22.2947 22.0936C22.3217 22.0823 22.3494 22.0708 22.3745 22.0596C22.4391 22.0313 22.4991 22.0035 22.5563 21.9764C22.5661 21.9716 22.5771 21.9667 22.5875 21.962L22.6045 21.9543C22.6742 21.9208 22.737 21.8891 22.7954 21.8585C22.8192 21.8461 22.839 21.8353 22.8605 21.8234L22.8935 21.8056L22.9358 21.7826C22.8645 20.8096 22.7189 19.9401 22.5643 19.0271C22.3632 18.7541 22.1129 18.4646 21.8534 18.1667C20.971 17.1579 19.8755 15.9033 19.8755 14.25C19.8755 13.964 20.1072 13.7323 20.3932 13.7323C20.6793 13.7323 20.9109 13.964 20.9109 14.25C20.9109 15.3183 21.5634 16.2296 22.2522 17.0441C22.0392 15.431 21.9373 13.8054 21.9469 12.1787V12.0818C21.9475 11.9413 21.9475 11.7873 21.9418 11.6287L21.9412 11.6157C21.9384 11.5403 21.9339 11.4633 21.9276 11.3863L21.9259 11.3647C21.9197 11.2894 21.9106 11.2135 21.8999 11.1382L21.8959 11.1104C21.8846 11.0368 21.8699 10.9637 21.8534 10.8912L21.8461 10.8578C21.8285 10.7876 21.8076 10.719 21.7838 10.6522C21.7792 10.6392 21.7747 10.6261 21.7702 10.6137C21.7458 10.5491 21.7175 10.4862 21.6858 10.4251L21.6637 10.3837C21.6308 10.3248 21.594 10.2687 21.5532 10.2155C21.5198 10.1679 21.483 10.1232 21.4439 10.0807C21.0067 9.71649 20.4425 9.54034 19.8755 9.59018C18.4805 9.64456 17.1404 10.1492 16.0568 11.03C14.4313 12.2478 13.0668 13.7793 12.0444 15.5346L11.0175 17.5901C10.6386 18.2352 10.3021 18.9047 10.0099 19.5935C9.9776 19.6898 9.94361 19.7951 9.90793 19.9118L9.90623 19.9175C9.76633 20.3791 9.65305 20.8475 9.56639 21.3216L9.58242 21.3366L9.58244 21.3367C9.59046 21.3443 9.59843 21.3518 9.6066 21.359C9.62661 21.376 9.64688 21.3928 9.66722 21.4097L9.66733 21.4098C9.68899 21.4278 9.71074 21.4459 9.73234 21.4643ZM22.6052 23.0882C22.7219 23.0389 22.8312 22.9914 22.932 22.9444C22.9467 22.9376 22.9654 22.9302 22.979 22.9262C22.9791 22.934 22.9792 22.9416 22.9794 22.9493C22.9796 22.9591 22.9798 22.9688 22.9801 22.9785L22.9801 22.9786C22.9807 23.0043 22.9813 23.0298 22.9813 23.0565C22.9813 26.8837 22.4664 29.965 21.4497 32.2142C21.3313 32.4741 21.1954 32.7256 21.0425 32.9669C21.0371 32.9754 21.0321 32.984 21.0272 32.9927C21.0222 33.0013 21.0173 33.01 21.0119 33.0185C20.8686 33.2394 20.7117 33.4501 20.5418 33.6511C20.5307 33.6644 20.5197 33.6779 20.5087 33.6914C20.4887 33.716 20.4686 33.7407 20.4477 33.7644C20.2874 33.9462 20.1164 34.119 19.9357 34.281C19.9201 34.2951 19.9047 34.3093 19.8893 34.3235C19.8583 34.3521 19.8274 34.3806 19.7952 34.4079C19.6106 34.5642 19.4174 34.7109 19.2169 34.8462C19.2041 34.855 19.1915 34.8641 19.1789 34.8732C19.1614 34.8858 19.1439 34.8984 19.1257 34.9103L19.1059 34.9057C19.0759 34.898 19.0437 34.8885 19.012 34.8792L19.0119 34.8792L19.0117 34.8792L18.996 34.8746C18.9496 34.8615 18.9037 34.8485 18.855 34.8327C18.8149 34.8197 18.7732 34.805 18.7314 34.7903L18.731 34.7902L18.7008 34.7796C18.6609 34.7656 18.6209 34.7516 18.5797 34.7358C18.5448 34.7226 18.5084 34.708 18.4719 34.6934L18.4449 34.6826C18.3917 34.661 18.3384 34.6395 18.2835 34.6157C18.2357 34.5949 18.1867 34.573 18.1378 34.551L18.1368 34.5506C18.0813 34.5257 18.0252 34.4996 17.968 34.4724C17.9159 34.4475 17.8638 34.422 17.8111 34.396C17.7528 34.3665 17.6933 34.3359 17.6333 34.3048L17.6049 34.2898L17.6046 34.2897C17.5602 34.2664 17.5154 34.2428 17.4701 34.2181C17.409 34.1847 17.3461 34.1496 17.2832 34.1139L17.2309 34.0842L17.2306 34.084C17.1923 34.0623 17.1538 34.0405 17.115 34.0176C17.0504 33.9796 16.9847 33.94 16.919 33.8998L16.8597 33.8637C16.8222 33.8409 16.7845 33.818 16.7463 33.7939C16.6936 33.7608 16.6402 33.726 16.5867 33.6911L16.5435 33.663C16.5187 33.6466 16.4938 33.6304 16.4689 33.6142L16.4688 33.6141L16.4686 33.614C16.4351 33.5922 16.4014 33.5702 16.3673 33.5475C16.2944 33.4983 16.2208 33.4468 16.1472 33.3953L16.147 33.3951L16.0849 33.3519L16.0849 33.3519C16.0506 33.3281 16.0162 33.3043 15.9816 33.2796C15.8906 33.214 15.7984 33.145 15.7062 33.076L15.706 33.0758L15.7058 33.0757L15.6588 33.0408C15.6275 33.0177 15.5961 32.9945 15.5647 32.9703C15.4435 32.8774 15.3212 32.7811 15.1983 32.6814C15.165 32.6546 15.1318 32.6266 15.0985 32.5986L15.098 32.5982C15.0782 32.5815 15.0584 32.5648 15.0386 32.5483L14.9786 32.4983C14.9187 32.4484 14.8588 32.3985 14.799 32.3467C14.7622 32.3148 14.7253 32.2819 14.6885 32.2489C14.6664 32.2291 14.6443 32.2093 14.6222 32.1898L14.5686 32.1421C14.5127 32.0923 14.4566 32.0425 14.4008 31.991C14.3568 31.9506 14.3131 31.9092 14.2695 31.8677L14.2167 31.8177L14.1825 31.7852L14.1823 31.785C14.1228 31.7284 14.0631 31.6716 14.0037 31.6132C13.9575 31.5674 13.9113 31.5207 13.8651 31.4739L13.865 31.4739L13.865 31.4738L13.8649 31.4737L13.8185 31.4269C13.7489 31.3566 13.6797 31.2864 13.6106 31.2139C13.5483 31.1493 13.4872 31.083 13.426 31.0168C13.358 30.9431 13.2901 30.8684 13.2227 30.793C13.1621 30.7245 13.1014 30.6554 13.0414 30.5857C12.9751 30.5081 12.9089 30.43 12.8432 30.3507C12.7837 30.2787 12.7248 30.2062 12.6659 30.1332C12.6013 30.0522 12.5373 29.9701 12.4739 29.8874L12.4358 29.8373C12.3911 29.7786 12.3463 29.7198 12.3022 29.6602C12.2388 29.5753 12.1771 29.4886 12.1153 29.4014L12.0911 29.3672L12.0911 29.3671L12.091 29.3671C12.0442 29.301 11.9975 29.2352 11.9516 29.168C11.9009 29.0942 11.8516 29.0185 11.8024 28.9427L11.7687 28.8911L11.7339 28.8378L11.7338 28.8377L11.7338 28.8377C11.6943 28.7774 11.6548 28.7171 11.6163 28.6554C11.5552 28.558 11.4963 28.4578 11.4373 28.3575C11.421 28.3298 11.4045 28.3023 11.3881 28.2748C11.3577 28.2242 11.3274 28.1736 11.298 28.1219C11.242 28.0235 11.1887 27.9234 11.1354 27.8231L11.1353 27.823L11.1156 27.786C11.1012 27.7588 11.0865 27.7319 11.0718 27.7049C11.0473 27.66 11.0229 27.6151 10.9995 27.5691C10.9066 27.3872 10.8171 27.202 10.731 27.014C10.7238 26.998 10.717 26.9819 10.7102 26.9659L10.7102 26.9658C10.7026 26.9477 10.6949 26.9297 10.6869 26.912C10.6127 26.7466 10.5402 26.5795 10.4722 26.4091C10.4528 26.3612 10.4349 26.3123 10.4169 26.2636C10.4071 26.2369 10.3973 26.2101 10.3872 26.1836L10.3805 26.166C10.3341 26.0433 10.2877 25.9211 10.2445 25.7962C10.2249 25.7396 10.2067 25.6819 10.1886 25.6243C10.1795 25.5954 10.1705 25.5666 10.1612 25.5379C10.121 25.4139 10.0808 25.2893 10.044 25.163C10.0221 25.0881 10.0022 25.0121 9.98229 24.9363L9.98228 24.9362L9.96922 24.8866C9.9358 24.762 9.90295 24.6379 9.8735 24.5116C9.85085 24.4153 9.83046 24.3179 9.81007 24.2205L9.81006 24.2205C9.78344 24.0947 9.75795 23.9678 9.73473 23.8398C9.7166 23.7402 9.70075 23.6399 9.68489 23.5391C9.66449 23.4099 9.64637 23.2797 9.62938 23.1483C9.61692 23.0463 9.60559 22.9438 9.59483 22.8407C9.59055 22.8008 9.5874 22.7607 9.58424 22.7205L9.58424 22.7205C9.58237 22.6968 9.5805 22.673 9.5784 22.6493C9.58265 22.6521 9.58704 22.6548 9.59143 22.6575C9.59582 22.6602 9.60021 22.6628 9.60446 22.6657C9.62258 22.6777 9.64121 22.6893 9.65988 22.701L9.65994 22.701L9.66004 22.7011C9.67574 22.7109 9.69148 22.7207 9.70698 22.7308C9.78401 22.7801 9.86217 22.8288 9.9426 22.8753C9.97729 22.8954 10.0131 22.9152 10.0489 22.9349L10.0712 22.9472C10.1476 22.9891 10.2252 23.0293 10.3045 23.069L10.3272 23.0802C10.3646 23.0987 10.4023 23.1173 10.4405 23.1352C10.5271 23.176 10.6166 23.2145 10.7067 23.2525C10.7256 23.2602 10.7441 23.2681 10.7626 23.2761L10.7627 23.2762L10.7628 23.2762L10.7629 23.2762L10.7629 23.2762C10.7837 23.2852 10.8047 23.2942 10.8262 23.3029C10.9565 23.3544 11.0907 23.4043 11.2289 23.4507C11.245 23.4562 11.2617 23.4613 11.2783 23.4663L11.2783 23.4663C11.2892 23.4696 11.2999 23.4729 11.3105 23.4762C11.4255 23.5136 11.5421 23.5493 11.6622 23.5827C11.7099 23.5962 11.759 23.6087 11.8079 23.6212L11.8079 23.6212L11.8079 23.6212L11.8079 23.6212L11.808 23.6212L11.8214 23.6246C11.9211 23.6507 12.0219 23.6756 12.1255 23.6994C12.1856 23.713 12.2456 23.726 12.3068 23.739C12.4121 23.7611 12.5203 23.7821 12.6302 23.8025L12.6835 23.8123C12.7246 23.82 12.7657 23.8276 12.808 23.8347C12.9434 23.8574 13.0822 23.8784 13.2238 23.8982C13.2419 23.9006 13.2597 23.9034 13.2776 23.9061C13.2967 23.909 13.3158 23.912 13.3354 23.9146C13.5166 23.939 13.7035 23.9599 13.8961 23.9792C13.923 23.9818 13.9505 23.984 13.978 23.9863L13.9781 23.9863L13.9781 23.9863L13.9787 23.9864C14.0054 23.9886 14.0323 23.9908 14.0587 23.9933C14.2008 24.0064 14.3453 24.0183 14.4937 24.029C14.5664 24.0345 14.6408 24.039 14.7147 24.0434L14.7208 24.0437C14.8573 24.0522 14.9966 24.0596 15.1388 24.0664L15.2146 24.0698H15.2147H15.2147H15.2147C15.2689 24.0722 15.3232 24.0747 15.3784 24.0766C15.5319 24.0828 15.6888 24.0868 15.848 24.0908L15.9212 24.0926L15.9218 24.0926C15.9697 24.0939 16.0175 24.0951 16.0666 24.0959C16.3011 24.0998 16.5407 24.1027 16.7888 24.1027C17.1371 24.1027 17.4667 24.0919 17.7879 24.076C17.8695 24.0721 17.9505 24.0675 18.0303 24.0624C18.3254 24.0443 18.612 24.0217 18.8839 23.9922L18.8968 23.9909L18.9068 23.9899L18.9258 23.9881L18.9298 23.9877C19.2158 23.956 19.4843 23.9169 19.7443 23.875C19.8117 23.8636 19.8774 23.8523 19.9431 23.841C20.1708 23.8008 20.39 23.7583 20.5967 23.7124L20.6245 23.7067L20.6245 23.7067C20.6397 23.7037 20.6551 23.7006 20.6698 23.6971C20.8952 23.6456 21.1048 23.5906 21.3058 23.5345C21.3533 23.5216 21.3989 23.5082 21.4447 23.4947L21.4633 23.4892C21.6327 23.4394 21.7941 23.389 21.9447 23.3374C21.9569 23.3332 21.9697 23.3291 21.9824 23.325L22.0101 23.3159L22.0201 23.3125C22.1889 23.2542 22.3429 23.1953 22.4885 23.1364L22.5111 23.1271C22.5431 23.1141 22.574 23.1015 22.6052 23.0882ZM17.3075 35.271L17.3104 35.2725C17.3524 35.2941 17.3934 35.3151 17.4344 35.3356C17.5646 35.4007 17.6909 35.4619 17.8133 35.5163C17.8215 35.5201 17.83 35.5244 17.8386 35.5286C17.8515 35.535 17.8645 35.5414 17.8767 35.5469C17.8452 35.559 17.8129 35.5698 17.7804 35.5807L17.7801 35.5808C17.7596 35.5877 17.7391 35.5946 17.7187 35.6018C17.6116 35.6403 17.5046 35.6777 17.3958 35.7106C17.3383 35.7278 17.2799 35.7431 17.2214 35.7583L17.1897 35.7666C17.0838 35.795 16.9773 35.8216 16.8702 35.8442C16.8034 35.859 16.7365 35.872 16.6691 35.8844C16.5513 35.906 16.4324 35.9235 16.3134 35.9388L16.2899 35.9419L16.2558 35.9466L16.2556 35.9467C16.2179 35.9519 16.1802 35.9572 16.1424 35.9609C15.9651 35.979 15.7872 35.9915 15.6083 35.9955C15.4774 35.9983 13.2803 36 13.1427 36C10.0847 36 9 33.4891 9 31.339L9.00013 31.0774C9.00025 30.906 9.00038 30.7369 9 30.5699C9.00029 30.5099 9.00072 30.4513 9.00116 30.393L9.00116 30.393L9.00227 30.2244L9.00366 30.0352C9.00409 29.9702 9.00452 29.9056 9.0051 29.842C9.00622 29.7043 9.00789 29.5704 9.00957 29.436L9.00963 29.4314L9.01303 29.1453L9.01982 28.7245L9.02205 28.6039L9.02436 28.4798C9.02662 28.3382 9.02945 28.1989 9.03285 28.0618L9.03795 27.8432C9.04135 27.7055 9.04475 27.569 9.04871 27.4359L9.05551 27.2111L9.0674 26.8486C9.0742 26.66 9.08156 26.4747 9.08893 26.2935L9.09402 26.1785C9.10139 26.0097 9.10875 25.8432 9.11725 25.6806L9.11838 25.6608C9.12546 25.6832 9.13353 25.705 9.1416 25.7268C9.14967 25.7486 9.15774 25.7704 9.16482 25.7928C9.24242 26.0346 9.32625 26.2725 9.41574 26.507C9.4265 26.5345 9.4367 26.5623 9.44689 26.59C9.45709 26.6178 9.46729 26.6455 9.47805 26.673C9.58963 26.9539 9.70857 27.2286 9.83488 27.4977C9.85219 27.5347 9.87035 27.5711 9.88857 27.6077C9.90017 27.6309 9.91179 27.6542 9.92324 27.6778C10.0275 27.893 10.1362 28.1037 10.2489 28.311L10.2796 28.3675L10.2797 28.3676L10.2797 28.3677C10.3067 28.4175 10.3337 28.4674 10.3616 28.5166C10.5049 28.771 10.6522 29.0207 10.8068 29.2626L10.8148 29.2745L10.8227 29.2864C10.9728 29.5209 11.1297 29.7474 11.2888 29.9706C11.3342 30.034 11.38 30.0969 11.4265 30.1598C11.563 30.345 11.7018 30.5257 11.8428 30.7024C11.8583 30.7217 11.8736 30.7413 11.889 30.7609L11.889 30.7609C11.9079 30.7851 11.9268 30.8092 11.9459 30.8327C12.1198 31.0456 12.2965 31.2524 12.476 31.4529C12.5004 31.4803 12.5252 31.5069 12.5498 31.5334C12.5665 31.5513 12.5831 31.5691 12.5995 31.5871C12.7456 31.7463 12.8923 31.902 13.0407 32.0533L13.0706 32.0839L13.0706 32.0839C13.1098 32.1241 13.1488 32.1641 13.1886 32.2034C13.3738 32.3886 13.5596 32.5687 13.7471 32.7403L13.764 32.7556C13.9476 32.9227 14.1305 33.0824 14.314 33.2371C14.365 33.2801 14.4154 33.322 14.4664 33.3639C14.6221 33.4925 14.7768 33.6166 14.9314 33.7361L14.9844 33.7774L15.0373 33.8188C15.2242 33.9604 15.4089 34.0957 15.5924 34.2243C15.6132 34.2389 15.6339 34.2528 15.6545 34.2668L15.6546 34.2668L15.6548 34.2669C15.6733 34.2794 15.6918 34.2919 15.7102 34.3047C15.8586 34.4067 16.0053 34.5047 16.1503 34.5976C16.1711 34.6107 16.1917 34.624 16.2123 34.6373L16.2128 34.6376C16.2381 34.6539 16.2633 34.6701 16.2885 34.6859C16.4658 34.7969 16.6408 34.904 16.8113 35.0014L16.8181 35.0054C16.9858 35.1017 17.1483 35.1889 17.3075 35.271ZM37.9936 30.0901L37.9953 30.324C37.9976 30.6554 37.9987 30.9913 37.9987 31.339C37.9987 33.4891 36.914 36 33.856 36C33.7184 36 31.5207 35.9983 31.3899 35.9955C31.2313 35.9921 31.0738 35.9836 30.9169 35.9689C30.8566 35.9634 30.7968 35.955 30.737 35.9466C30.7098 35.9428 30.6825 35.939 30.6552 35.9354C30.6307 35.9322 30.6061 35.9294 30.5815 35.9265L30.5814 35.9265L30.5812 35.9265L30.5811 35.9265C30.5366 35.9213 30.492 35.9161 30.4479 35.9088L30.4377 35.9065C30.4752 35.8888 30.5122 35.8692 30.5491 35.8496L30.5491 35.8496L30.5492 35.8496L30.5493 35.8495C30.5781 35.8342 30.607 35.819 30.636 35.8046C30.7079 35.7689 30.7787 35.7327 30.8495 35.6953C31.0812 35.5729 31.3094 35.4432 31.5343 35.3028C31.5467 35.2952 31.5592 35.288 31.5717 35.2807L31.5718 35.2806C31.5912 35.2693 31.6107 35.258 31.63 35.2456C31.8832 35.0841 32.1307 34.9097 32.3749 34.7267C32.418 34.6944 32.4608 34.6609 32.5036 34.6275L32.5572 34.5857C32.7538 34.4328 32.9469 34.2736 33.1372 34.1082C33.1571 34.0909 33.177 34.0739 33.1969 34.0568C33.229 34.0293 33.2611 34.0018 33.293 33.9734C33.5235 33.7672 33.7484 33.5526 33.9682 33.3294C33.9929 33.3043 34.0171 33.2785 34.0412 33.2526L34.0414 33.2525C34.0586 33.234 34.0759 33.2156 34.0933 33.1974C34.2757 33.0077 34.4536 32.8134 34.6275 32.6135L34.6579 32.5786C34.7015 32.5286 34.745 32.4788 34.7877 32.4282C34.9939 32.1847 35.1961 31.9366 35.3898 31.6806C35.3943 31.6748 35.3983 31.6688 35.4024 31.6629L35.4074 31.6562C35.5949 31.4076 35.7744 31.1521 35.95 30.8933C35.997 30.8242 36.0429 30.7551 36.0888 30.6854C36.2423 30.4521 36.3912 30.2159 36.5345 29.9768L36.5603 29.9351C36.5759 29.9098 36.5915 29.8846 36.6065 29.859C36.769 29.5821 36.9242 29.3023 37.0715 29.0196C37.0934 28.9782 37.1143 28.9368 37.1351 28.8954C37.1476 28.8705 37.1601 28.8457 37.1729 28.8208C37.2913 28.588 37.404 28.3547 37.5122 28.1196L37.5347 28.0712C37.5573 28.0228 37.58 27.9743 37.6017 27.9259C37.72 27.6608 37.8339 27.3946 37.9387 27.1278L37.9392 27.1505C37.9489 27.4467 37.9568 27.752 37.9642 28.0664L37.9659 28.1439C37.9721 28.4283 37.9772 28.7206 37.9817 29.0196C37.9821 29.0352 37.9824 29.0506 37.9827 29.066C37.9829 29.0758 37.9831 29.0856 37.9832 29.0954L37.984 29.1527C37.9879 29.4569 37.9913 29.7701 37.9936 30.0901Z" fill="#00B1B8"/>
</svg>
