<svg width="50" height="46" viewBox="0 0 50 46" fill="none" xmlns="http://www.w3.org/2000/svg">
<path d="M7.22032 42.4487C7.06297 43.262 7.59476 44.0489 8.40811 44.2063C9.22145 44.3636 10.0084 43.8318 10.1657 43.0185L7.22032 42.4487ZM48.5838 3.79132C49.4048 3.68035 49.9804 2.92487 49.8694 2.10391C49.7584 1.28295 49.0029 0.707389 48.182 0.818364L48.5838 3.79132ZM2.78701 32.3309C2.36014 31.6209 1.43853 31.3914 0.728554 31.8183C0.0185734 32.2452 -0.210932 33.1668 0.215939 33.8768L2.78701 32.3309ZM6.97646 42.21L5.69093 42.9829L5.69165 42.9841L6.97646 42.21ZM10.593 43.2607L9.98003 41.8917L9.97878 41.8922L10.593 43.2607ZM21.5121 40.0157C22.2682 39.6772 22.6067 38.7898 22.2682 38.0337C21.9297 37.2776 21.0423 36.939 20.2862 37.2776L21.5121 40.0157ZM8.69301 42.7336C10.1657 43.0185 10.1656 43.0188 10.1656 43.0191C10.1656 43.0191 10.1656 43.0193 10.1656 43.0193C10.1656 43.0193 10.1656 43.019 10.1657 43.0185C10.1659 43.0174 10.1663 43.0153 10.1669 43.0122C10.1682 43.0059 10.1703 42.9954 10.1732 42.9809C10.1791 42.9518 10.1884 42.9065 10.2013 42.8457C10.2272 42.7241 10.2673 42.5405 10.3231 42.3009C10.4347 41.8218 10.6086 41.1194 10.8549 40.2422C11.3479 38.4864 12.1289 36.0372 13.2771 33.2783C15.583 27.7376 19.3233 21.0616 25.0835 16.2003L23.1487 13.9077C16.876 19.2014 12.9048 26.3652 10.5074 32.1256C9.30394 35.0172 8.48531 37.5838 7.9666 39.4312C7.70706 40.3556 7.5221 41.1017 7.40127 41.6205C7.34085 41.88 7.29643 42.0828 7.26671 42.2229C7.25185 42.2929 7.24066 42.3472 7.23298 42.3851C7.22915 42.404 7.22618 42.4189 7.22408 42.4295C7.22303 42.4348 7.22219 42.4391 7.22156 42.4423C7.22125 42.4439 7.22099 42.4452 7.22078 42.4463C7.22068 42.4468 7.22056 42.4474 7.22051 42.4477C7.22041 42.4482 7.22032 42.4487 8.69301 42.7336ZM25.0835 16.2003C36.8961 6.23119 46.2846 4.10213 48.5838 3.79132L48.182 0.818364C45.3234 1.20477 35.4018 3.56674 23.1487 13.9077L25.0835 16.2003ZM0.215939 33.8768L5.69093 42.9829L8.26199 41.437L2.78701 32.3309L0.215939 33.8768ZM5.69165 42.9841C6.83391 44.8799 9.22018 45.521 11.2071 44.6292L9.97878 41.8922C9.27769 42.2069 8.56586 41.9414 8.26127 41.4358L5.69165 42.9841ZM11.2059 44.6298L21.5121 40.0157L20.2862 37.2776L9.98003 41.8917L11.2059 44.6298Z" fill="#0A8FDC"/>
</svg>
