<svg width="46" height="46" viewBox="0 0 46 46" fill="none" xmlns="http://www.w3.org/2000/svg">
<rect x="3" y="3" width="40" height="40" rx="20" fill="#F2F4F7"/>
<path d="M19.6665 26.3333L22.9998 23M22.9998 23L26.3332 26.3333M22.9998 23V30.5M29.6665 26.9524C30.6844 26.1117 31.3332 24.8399 31.3332 23.4167C31.3332 20.8854 29.2811 18.8333 26.7498 18.8333C26.5677 18.8333 26.3974 18.7383 26.3049 18.5814C25.2182 16.7374 23.2119 15.5 20.9165 15.5C17.4647 15.5 14.6665 18.2982 14.6665 21.75C14.6665 23.4718 15.3627 25.0309 16.489 26.1613" stroke="#6B7280" stroke-width="1.66667" stroke-linecap="round" stroke-linejoin="round"/>
<rect x="3" y="3" width="40" height="40" rx="20" stroke="#F9FAFB" stroke-width="6"/>
</svg>
