<svg width="46" height="46" viewBox="0 0 46 46" fill="none" xmlns="http://www.w3.org/2000/svg">
<rect width="46" height="46" rx="4" fill="white"/>
<path fill-rule="evenodd" clip-rule="evenodd" d="M15.8568 28.5284H31.0716C31.5832 28.5284 32 28.9453 32 29.4568C32 29.9684 31.5832 30.3853 31.0716 30.3853H14.9284C14.4168 30.3853 14 29.9684 14 29.4568V15.9284C14 15.4168 14.4168 15 14.9284 15C15.44 15 15.8568 15.4168 15.8568 15.9284V28.5284ZM18.093 27.2778C17.9035 27.2778 17.6951 27.221 17.5246 27.0884C17.1267 26.7852 17.0698 26.1978 17.373 25.8L21.2382 20.9305C21.3898 20.7221 21.6361 20.5894 21.9014 20.5705C22.1667 20.5515 22.413 20.6463 22.6024 20.8357L24.1561 22.3705L26.4298 19.6989L25.5393 18.9031C25.2172 18.6189 25.3119 18.0694 25.7288 17.9368L29.7646 16.5726C30.1814 16.421 30.5982 16.781 30.5035 17.2168L29.6698 21.3852C29.5751 21.821 29.0635 21.9915 28.7414 21.7073L27.8509 20.9115L24.8761 24.2842C24.7056 24.4926 24.4593 24.6063 24.213 24.6063C23.9667 24.6252 23.7203 24.5305 23.5309 24.341L22.0151 22.8442L18.813 26.9178C18.6424 27.1642 18.3582 27.2778 18.093 27.2778Z" fill="#0090F1"/>
</svg>
