<svg width="46" height="46" viewBox="0 0 46 46" fill="none" xmlns="http://www.w3.org/2000/svg">
<rect width="46" height="46" rx="4" fill="white"/>
<path d="M20.8701 14.0001C20.7664 13.9986 20.6635 14.0178 20.5672 14.0564C20.471 14.0951 20.3834 14.1525 20.3095 14.2253C20.2357 14.2982 20.177 14.3849 20.137 14.4806C20.097 14.5763 20.0764 14.679 20.0764 14.7827C20.0764 14.8864 20.097 14.9891 20.137 15.0848C20.177 15.1805 20.2357 15.2672 20.3095 15.34C20.3834 15.4129 20.471 15.4703 20.5672 15.5089C20.6635 15.5476 20.7664 15.5668 20.8701 15.5653H24.7832C24.8869 15.5668 24.9899 15.5476 25.0861 15.5089C25.1824 15.4703 25.27 15.4129 25.3438 15.34C25.4177 15.2672 25.4763 15.1805 25.5163 15.0848C25.5564 14.9891 25.577 14.8864 25.577 14.7827C25.577 14.679 25.5564 14.5763 25.5163 14.4806C25.4763 14.3849 25.4177 14.2982 25.3438 14.2253C25.27 14.1525 25.1824 14.0951 25.0861 14.0564C24.9899 14.0178 24.8869 13.9986 24.7832 14.0001H20.8701ZM29.3689 16.0988C29.213 16.0988 29.0607 16.1454 28.9314 16.2325C28.8022 16.3197 28.7019 16.4434 28.6434 16.5879C28.585 16.7324 28.571 16.8911 28.6033 17.0436C28.6356 17.1961 28.7127 17.3355 28.8247 17.4439L30.0216 18.6407C30.0937 18.7159 30.18 18.7758 30.2756 18.8171C30.3712 18.8585 30.4741 18.8803 30.5782 18.8813C30.6823 18.8824 30.7856 18.8627 30.882 18.8233C30.9784 18.784 31.066 18.7258 31.1396 18.6521C31.2132 18.5785 31.2714 18.4909 31.3108 18.3945C31.3501 18.2981 31.3699 18.1948 31.3688 18.0907C31.3678 17.9866 31.3459 17.8837 31.3046 17.7881C31.2633 17.6926 31.2033 17.6062 31.1282 17.5341L29.9314 16.3372C29.8584 16.2618 29.771 16.2018 29.6743 16.1608C29.5777 16.1199 29.4738 16.0988 29.3689 16.0988ZM22.8267 16.3479C20.8207 16.3482 18.8146 17.1103 17.2888 18.6362C14.2371 21.6878 14.2371 26.6588 17.2888 29.7105C20.3404 32.7622 25.3129 32.7637 28.3646 29.712C31.4163 26.6604 31.4163 21.6879 28.3646 18.6362C26.8388 17.1104 24.8326 16.3477 22.8267 16.348V16.3479ZM22.8267 17.9025C24.4288 17.9022 26.0312 18.5161 27.2579 19.7428C29.7115 22.1963 29.7115 26.1518 27.2579 28.6053C24.8044 31.0589 20.8489 31.0574 18.3954 28.6038C15.9419 26.1502 15.9419 22.1978 18.3954 19.7443C19.6222 18.5176 21.2246 17.9027 22.8267 17.9024V17.9025ZM22.8267 18.6958V24.1741V29.6524C24.2796 29.6524 25.673 29.0752 26.7004 28.0478C27.7278 27.0205 28.305 25.627 28.305 24.1741C28.305 22.7211 27.7278 21.3277 26.7004 20.3003C25.673 19.273 24.2796 18.6958 22.8267 18.6958Z" fill="#0090F1"/>
</svg>
