<svg width="24" height="22" viewBox="0 0 24 22" fill="none" xmlns="http://www.w3.org/2000/svg">
<path fill-rule="evenodd" clip-rule="evenodd" d="M18.907 6.30807L22.7318 10.1328C24.2499 7.70791 24.1826 4.40721 22.0731 2.29774L21.5803 1.80489C19.1087 -0.666651 14.9293 -0.55745 12.4995 1.87218L8.5565 5.81521C8.28059 6.09112 8.28059 6.52484 8.5565 6.80093C9.41414 7.65857 10.7646 7.78682 11.7701 7.11638L15.9497 4.33646C16.2256 4.06056 16.6593 4.06056 16.9354 4.33646C17.1622 4.56321 17.4283 4.73082 17.7339 4.81953C18.4535 5.08582 19.3012 4.928 19.8927 4.33646C20.1686 4.06056 20.6024 4.06056 20.8784 4.33646C21.1545 4.61273 21.1545 5.04627 20.8784 5.32236C20.3264 5.87435 19.6168 6.20939 18.907 6.30807ZM2.88826 13.4547L5.35272 10.9904C5.76105 10.5821 6.42297 10.5821 6.83129 10.9904C7.23962 11.3986 7.23962 12.0607 6.83129 12.469L4.36701 14.9334C3.95869 15.3416 3.29659 15.3416 2.88826 14.9334C2.47994 14.5251 2.47994 13.863 2.88826 13.4547ZM5.3521 15.9191L7.81656 13.4547C8.22489 13.0464 8.8868 13.0464 9.29513 13.4547C9.70345 13.863 9.70345 14.5251 9.29513 14.9334L6.83067 17.3977C6.42234 17.806 5.76042 17.806 5.3521 17.3977C4.94377 16.9894 4.94377 16.3275 5.3521 15.9191ZM10.2814 15.9192L7.81712 18.3837C7.40879 18.792 7.40879 19.4539 7.81712 19.8623C8.22544 20.2706 8.88736 20.2706 9.29568 19.8623L11.7601 17.3978C12.1685 16.9895 12.1685 16.3276 11.7601 15.9192C11.3518 15.5109 10.6897 15.5109 10.2814 15.9192ZM12.7458 21.3408C12.3375 21.7492 11.6754 21.7492 11.267 21.3408C10.8589 20.9325 10.8589 20.2706 11.267 19.8623L12.7458 18.3837C13.1541 17.9754 13.816 17.9754 14.2244 18.3837C14.6327 18.792 14.6327 19.4539 14.2244 19.8623L12.7458 21.3408ZM2.10239 3.30434L3.0881 2.31863C5.36917 0.0375576 8.50807 -0.537653 10.9709 1.42905L7.57042 4.82953C6.75232 5.64763 6.75232 6.96856 7.57042 7.78684C8.83494 9.05136 10.9526 9.33706 12.542 8.27716L16.3627 5.73579L21.6175 10.9905C22.0258 11.3986 22.0258 12.0607 21.6175 12.4691C21.2091 12.8774 20.5472 12.8774 20.1389 12.4691L15.4565 7.78666C15.1844 7.51457 14.743 7.51439 14.4708 7.78666C14.1985 8.05894 14.1985 8.50028 14.4708 8.77256L19.153 13.4548C19.5613 13.8631 19.5613 14.525 19.153 14.9335C18.7449 15.3417 18.0828 15.3417 17.6744 14.9335L12.992 10.2511C12.7199 9.97885 12.2786 9.97885 12.0063 10.2511C11.734 10.5234 11.734 10.9647 12.0063 11.2368L16.6887 15.9192C17.097 16.3274 17.097 16.9895 16.6887 17.3978C16.2804 17.8061 15.6183 17.8061 15.21 17.3978L10.2812 12.4691C9.79834 11.9862 9.16182 11.7511 8.52748 11.7585C8.53473 11.1242 8.29964 10.4875 7.81694 10.0046C6.8657 9.05354 5.31783 9.05354 4.36677 10.0046L2.14883 12.2225L1.60935 11.6833C-0.840419 9.23349 -0.347563 5.75429 2.10239 3.30434Z" fill="#F9911C"/>
</svg>
