<svg width="19" height="12" viewBox="0 0 19 12" fill="none" xmlns="http://www.w3.org/2000/svg">
<path d="M1.11534 9.53674e-07C1.26183 -0.000188828 1.40692 0.0288219 1.54226 0.0853653C1.67761 0.141909 1.80054 0.224871 1.904 0.329485L6.6789 5.15902L9.23615 2.57948C9.33971 2.47501 9.46267 2.39214 9.59798 2.3356C9.7333 2.27906 9.87834 2.24996 10.0248 2.24996C10.1713 2.24996 10.3163 2.27906 10.4516 2.3356C10.5869 2.39214 10.7099 2.47501 10.8135 2.57948L16.3315 8.15855L16.3311 5.625C16.3311 5.32663 16.4486 5.04048 16.6577 4.82951C16.8669 4.61853 17.1506 4.5 17.4464 4.5C17.7422 4.5 18.0258 4.61853 18.235 4.82951C18.4442 5.04048 18.5617 5.32663 18.5617 5.625L18.5625 10.875C18.5625 11.1734 18.445 11.4595 18.2358 11.6705C18.0267 11.8815 17.743 12 17.4472 12H12.2425C11.9467 12 11.663 11.8815 11.4538 11.6705C11.2447 11.4595 11.1272 11.1734 11.1272 10.875C11.1272 10.5766 11.2447 10.2905 11.4538 10.0795C11.663 9.86853 11.9467 9.75 12.2425 9.75H14.7546L10.0248 4.96598L7.46756 7.54552C7.364 7.64999 7.24104 7.73286 7.10573 7.7894C6.97041 7.84594 6.82537 7.87504 6.6789 7.87504C6.53244 7.87504 6.3874 7.84594 6.25208 7.7894C6.11677 7.73286 5.99381 7.64999 5.89025 7.54552L0.326684 1.92052C0.170699 1.76318 0.0644704 1.56272 0.0214329 1.34449C-0.0216045 1.12626 0.00048209 0.900049 0.0848998 0.694477C0.169318 0.488905 0.312275 0.313202 0.495692 0.189586C0.67911 0.0659695 0.894749 -7.62939e-06 1.11534 9.53674e-07Z" fill="#FF5252"/>
</svg>
