<svg width="46" height="46" viewBox="0 0 46 46" fill="none" xmlns="http://www.w3.org/2000/svg">
    <circle cx="23" cy="23" r="23" fill="#F04F47" fill-opacity="0.2"/>
    <path d="M31.2432 12.0655C30.2039 11.389 28.8843 10.9914 27.6308 11.0001C26.2409 11.0094 25.2899 12.1079 24.1588 12.656C23.5206 12.9652 22.8254 13.1 21.9621 12.7652C20.6359 12.2515 19.9215 11.1332 18.3863 11.0246C17.1045 10.9339 15.7837 11.3936 14.7535 12.0649C13.0533 13.1733 12.2182 15.1488 12.0393 17.0667C11.9516 18.0088 12.0056 18.9847 12.253 19.9024C12.5712 21.0851 13.3595 22.133 13.7209 23.3274C14.1922 24.885 13.9394 26.406 13.949 27.9921C13.9628 30.4105 13.9796 33.3508 15.8666 34.9979C16.4934 35.5448 17.6971 36.2731 18.5262 35.8959C19.3973 35.4995 19.1392 34.2075 19.763 31.8246C20.1622 30.2983 20.6119 27.4987 22.3685 26.8524C24.9063 25.9184 25.8435 30.3349 26.2337 31.8246C26.8575 34.2075 26.5993 35.4995 27.4705 35.8959C28.2996 36.2731 29.5033 35.5448 30.1301 34.9979C32.0164 33.3508 32.0332 30.4105 32.0476 27.9927C32.0608 25.6638 31.8057 23.7186 33.0262 21.5786C34.6959 18.6505 34.2918 14.052 31.2432 12.0655ZM15.3305 21.5547C15.2938 21.5635 15.2566 21.5675 15.2206 21.5675C15.0117 21.5675 14.822 21.4298 14.7703 21.2246C14.7067 20.9724 14.6641 20.7126 14.643 20.4528C14.6232 20.2058 14.8141 19.9896 15.0693 19.9704C15.3239 19.9506 15.5478 20.136 15.5676 20.383C15.5844 20.5946 15.6192 20.8062 15.6715 21.0119C15.7321 21.2537 15.5796 21.4966 15.3305 21.5547ZM18.0027 14.1032C17.5272 14.2398 16.8374 14.5286 16.255 15.1278C14.9594 16.4605 15.196 18.2884 15.2566 18.6412C15.2986 18.8859 15.1275 19.1172 14.8748 19.1579C14.849 19.1619 14.8232 19.1643 14.7979 19.1643C14.5752 19.1643 14.3789 19.0085 14.3411 18.7888C14.2678 18.3628 13.9838 16.1542 15.579 14.5129C16.1518 13.9236 16.8986 13.4842 17.7379 13.243C17.9835 13.1727 18.2416 13.3081 18.3149 13.5458C18.3881 13.7823 18.2482 14.0323 18.0027 14.1032Z"
          fill="#FF8B26"/>
</svg>
