<svg width="60" height="60" viewBox="0 0 60 60" fill="none" xmlns="http://www.w3.org/2000/svg">
<path opacity="0.1" fill-rule="evenodd" clip-rule="evenodd" d="M29.9775 1.0344H29.99C45.9749 1.0344 58.9331 13.9927 58.9331 29.9774V30.0224C58.9331 46.0072 45.9749 58.9655 29.99 58.9655H29.9775C13.9926 58.9655 1.03446 46.0072 1.03446 30.0224V29.9774C1.03446 13.9927 13.9926 1.0344 29.9775 1.0344Z" fill="#DA8E16"/>
<path fill-rule="evenodd" clip-rule="evenodd" d="M18.86 44.9649C18.5919 44.8831 18.3238 44.6241 18.292 44.4969C15.3932 33.1834 17.4287 25.6729 23.8306 22.0971C24.8302 21.5382 26.2978 21.1157 27.2656 21.7336C28.4287 22.4742 28.0016 24.8005 28.6105 25.6411C28.6695 25.7047 28.7332 25.7592 28.7922 25.8137V15H29.5646V15.3953C29.7918 15.4135 30.0326 15.4226 30.2825 15.4226C30.5142 15.4226 30.7414 15.4135 30.955 15.3998V15H31.7274V25.8728C31.8137 25.8046 31.9 25.7274 31.9818 25.6456C32.5861 24.805 32.1636 22.4787 33.3267 21.7381C34.299 21.1202 35.7621 21.5428 36.7617 22.1016C43.1636 25.6774 45.2036 33.1834 42.3003 44.5015C42.2685 44.6287 42.0049 44.8877 41.7323 44.9695C41.4643 45.0467 41.1598 44.9558 41.0553 44.9331C33.8265 40.703 33.3903 40.5576 32.5225 33.0607C32.4044 32.0248 31.6501 30.8753 30.5233 30.4164H30.0553C28.9331 30.8798 28.1788 32.0293 28.0607 33.0607C27.202 40.5531 26.7658 40.6985 19.5369 44.9286C19.4324 44.9513 19.1326 45.0421 18.86 44.9649ZM21.418 35.0463C21.4952 34.8963 21.577 34.7464 21.6497 34.5919C21.836 34.2148 22.0223 33.8331 22.2177 33.4606C22.3585 33.1925 22.4994 32.929 22.6448 32.6745C23.5853 33.3106 23.817 34.0512 24.2168 35.0781C24.2168 35.1099 24.2214 35.1371 24.2214 35.169L24.2759 35.1644C24.2714 35.119 24.2714 35.0781 24.2668 35.0326C24.3668 34.0785 24.2032 33.4106 23.5489 32.6518C23.3672 32.4428 23.1627 32.3065 22.9446 32.1611C23.658 30.9979 24.5031 30.062 25.957 29.5485C26.0252 29.5258 26.0933 29.5031 26.166 29.4804C25.5754 30.6572 25.4663 31.9157 25.8525 33.2606C25.8525 33.3015 25.8571 33.3379 25.8616 33.3788L25.9116 33.3742C25.9116 33.3379 25.907 33.297 25.907 33.2606C26.0388 32.4383 26.216 31.634 26.4477 30.8344C26.525 30.5754 26.634 30.33 26.7385 30.0801C26.8567 29.803 27.0293 29.5304 27.2065 29.2759C27.6109 29.2305 28.0198 29.2169 28.4287 29.2123C28.6059 29.2169 28.7831 29.1987 28.9558 29.1578C29.5692 29.0169 29.9826 28.6444 30.2643 28.1582C30.3643 28.3309 30.4779 28.4899 30.6187 28.6217C31.3593 29.3305 31.8637 29.1714 32.786 29.2259C32.9632 29.235 33.145 29.2532 33.3313 29.2759C33.4585 29.4577 33.5857 29.6485 33.6766 29.8393C33.822 30.1483 33.9446 30.4209 34.0582 30.7435C34.3445 31.5523 34.4671 32.4292 34.6307 33.2697C34.6307 33.3061 34.6262 33.3379 34.6262 33.3742L34.6807 33.3788C34.6807 33.3379 34.6852 33.297 34.6852 33.2561C34.7352 33.0744 34.7852 32.8926 34.817 32.7018C35.0033 31.6204 34.8942 30.7844 34.508 29.7666C34.4717 29.6712 34.4308 29.5758 34.3854 29.4895C34.708 29.5803 35.0169 29.703 35.2895 29.8575C35.6121 30.0393 35.862 30.2028 36.1483 30.43C36.7117 30.8798 37.1797 31.4887 37.5931 32.1566C37.4296 32.2656 37.2796 32.361 37.1297 32.5064C36.3982 33.2061 36.1256 34.0694 36.2619 35.0508C36.2573 35.0872 36.2573 35.1281 36.2528 35.1644L36.3073 35.169C36.3073 35.1371 36.3118 35.1008 36.3164 35.069C36.6617 34.0694 37.0025 33.2743 37.8976 32.6745C38.3474 33.4833 38.7381 34.342 39.1289 35.0781C39.1652 35.1644 39.197 35.2507 39.2334 35.3371L39.2606 35.328L39.2833 35.3189C39.2425 35.228 39.2061 35.1326 39.1698 35.0372C39.0653 34.701 38.9744 34.3647 38.8699 34.0285C38.6245 33.2425 38.3746 32.4746 38.0248 31.7295C37.8612 31.3887 37.6658 31.0343 37.4432 30.7026C38.3746 30.4436 39.1107 30.6844 40.0694 30.9525C40.0966 30.9707 40.1239 30.9843 40.1466 31.0025L40.1603 30.9798L40.1739 30.9571C40.133 30.9343 40.0966 30.9071 40.0558 30.8844C39.8377 30.6844 39.6423 30.5027 39.3606 30.3573C38.5518 29.9393 37.8748 29.9393 37.0615 30.1983C37.0343 30.1665 37.0116 30.1392 36.9843 30.1074C35.653 28.608 34.0401 28.19 32.1272 28.1128C32.0727 28.1173 31.9364 28.0991 31.8682 28.081C31.2821 27.9219 31.0595 27.2404 30.9641 26.6497V25.2821C30.7505 25.2958 30.5233 25.3048 30.2916 25.3048C30.0417 25.3048 29.8009 25.2958 29.5737 25.2776V26.6497C29.501 27.0996 29.3693 27.5039 29.0739 27.8629C28.8467 28.1355 28.4424 28.1082 28.1379 28.1264C27.9744 28.1355 27.8063 28.14 27.6427 28.1628C26.8112 28.2582 26.0115 28.4263 25.2573 28.8034C24.5122 29.1805 23.9397 29.653 23.4808 30.2028C23.2763 30.1301 23.0719 30.0665 22.8447 30.0483C21.8814 29.962 21.1499 30.2437 20.4684 30.898C20.4366 30.9162 20.4002 30.9389 20.3684 30.9616L20.3957 31.007C20.4229 30.9889 20.4548 30.9707 20.482 30.9525C21.4044 30.6572 22.1904 30.4709 23.0991 30.7117C22.4539 31.6659 22.0586 32.7927 21.6815 34.0013C21.5679 34.3602 21.4589 34.7237 21.3544 35.0872C21.3226 35.1644 21.2908 35.2462 21.259 35.3234L21.3089 35.3462C21.3362 35.2371 21.3771 35.1417 21.418 35.0463ZM30.9595 24.596V23.7418C30.746 23.7555 30.5188 23.7646 30.2871 23.7646C30.0372 23.7646 29.7964 23.7555 29.5692 23.7373V24.5915C29.7964 24.6097 30.0372 24.6188 30.2871 24.6188C30.5188 24.6188 30.746 24.6142 30.9595 24.596ZM30.9595 23.0649V22.2107C30.746 22.2243 30.5188 22.2334 30.2871 22.2334C30.0372 22.2334 29.7964 22.2243 29.5692 22.2061V23.0603C29.7964 23.0785 30.0372 23.0876 30.2871 23.0876C30.5188 23.0876 30.746 23.0785 30.9595 23.0649ZM30.9595 21.5291V20.6749C30.746 20.6886 30.5188 20.6977 30.2871 20.6977C30.0372 20.6977 29.7964 20.6886 29.5692 20.6704V21.5246C29.7964 21.5428 30.0372 21.5518 30.2871 21.5518C30.5188 21.5518 30.746 21.5473 30.9595 21.5291ZM30.9595 19.9979V19.1437C30.746 19.1574 30.5188 19.1665 30.2871 19.1665C30.0372 19.1665 29.7964 19.1574 29.5692 19.1392V19.9934C29.7964 20.0116 30.0372 20.0207 30.2871 20.0207C30.5188 20.0207 30.746 20.0116 30.9595 19.9979ZM30.9595 18.4622V17.608C30.746 17.6216 30.5188 17.6307 30.2871 17.6307C30.0372 17.6307 29.7964 17.6216 29.5692 17.6035V18.4577C29.7964 18.4758 30.0372 18.4849 30.2871 18.4849C30.5188 18.4849 30.746 18.4804 30.9595 18.4622ZM30.9595 16.931V16.0768C30.746 16.0905 30.5188 16.0995 30.2871 16.0995C30.0372 16.0995 29.7964 16.0905 29.5692 16.0723V16.9265C29.7964 16.9447 30.0372 16.9537 30.2871 16.9537C30.5188 16.9537 30.746 16.9447 30.9595 16.931Z" fill="#DA8E16"/>
</svg>
