<svg width="67" height="67" viewBox="0 0 67 67" fill="none" xmlns="http://www.w3.org/2000/svg">
<path opacity="0.1" fill-rule="evenodd" clip-rule="evenodd" d="M33.4749 1.15508H33.4889C51.3387 1.15508 65.8086 15.6251 65.8086 33.4747V33.525C65.8086 51.3747 51.3387 65.8448 33.4889 65.8448H33.4749C15.6251 65.8448 1.15515 51.3747 1.15515 33.525V33.4747C1.15515 15.6251 15.6251 1.15508 33.4749 1.15508Z" fill="#4064AC"/>
<path d="M32.5 22.3636C30.7795 22.3636 29.4 23.7795 29.4 25.5455C29.4 27.3114 30.7795 28.7273 32.5 28.7273C34.2205 28.7273 35.6 27.3114 35.6 25.5455C35.6 23.7795 34.2205 22.3636 32.5 22.3636ZM48 16V23.9545H44.9V20.7727H20.1V23.9545H17V16H20.1V19.1818H44.9V16H48ZM37.15 32.3227V51H34.05V43.0455H30.95V51H27.85V32.3227C24.6415 30.5886 22.425 27.1364 22.425 23.1591V22.3636H25.525V23.1591C25.525 27.1364 28.625 30.3182 32.5 30.3182C36.375 30.3182 39.475 27.1364 39.475 23.1591V22.3636H42.575V23.1591C42.575 27.1364 40.3585 30.5886 37.15 32.3227Z" fill="#4064AC"/>
</svg>
