<svg width="67" height="67" viewBox="0 0 67 67" fill="none" xmlns="http://www.w3.org/2000/svg">
<path opacity="0.1" fill-rule="evenodd" clip-rule="evenodd" d="M33.4749 1.15508H33.4889C51.3387 1.15508 65.8086 15.6251 65.8086 33.4747V33.525C65.8086 51.3747 51.3387 65.8448 33.4889 65.8448H33.4749C15.6251 65.8448 1.15515 51.3747 1.15515 33.525V33.4747C1.15515 15.6251 15.6251 1.15508 33.4749 1.15508Z" fill="#FF8B26"/>
<path d="M23.6 17C26.9566 17 28.6349 20.672 26.2777 22.814C23.9017 24.939 19.8286 23.426 19.8286 20.4C19.8286 19.4983 20.2259 18.6335 20.9332 17.9958C21.6405 17.3582 22.5998 17 23.6 17ZM20.7714 25.5H26.4286C27.4288 25.5 28.3881 25.8582 29.0954 26.4958C29.8027 27.1335 30.2 27.9983 30.2 28.9V38.25H27.3714V51H19.8286V38.25H17V28.9C17 27.9983 17.3973 27.1335 18.1046 26.4958C18.8119 25.8582 19.7712 25.5 20.7714 25.5ZM50 27.2H38.6857V30.6H50V27.2ZM50 32.3H44.3429V35.7H50V32.3ZM50 17H38.6857V20.4H50V17ZM50 22.1H44.3429V25.5H50V22.1ZM50 37.4H38.6857V40.8H50V37.4ZM50 47.6H38.6857V51H50V47.6ZM50 42.5H44.3429V45.9H50" fill="#FF8B26"/>
</svg>
