<svg width="46" height="46" viewBox="0 0 46 46" fill="none" xmlns="http://www.w3.org/2000/svg">
<circle cx="23" cy="23" r="23" fill="#3D5AFE" fill-opacity="0.2"/>
<path fill-rule="evenodd" clip-rule="evenodd" d="M21.4363 29.0124C21.6208 29.0124 21.7859 29.0003 21.9455 28.9856C22.0688 28.9741 22.1813 28.957 22.2905 28.9384C22.3063 28.9358 22.3224 28.9332 22.3384 28.9307C22.3682 28.9261 22.3979 28.9214 22.4255 28.9158C22.5346 28.8938 22.6349 28.8684 22.7292 28.8411L22.7596 28.8324C22.7813 28.8263 22.803 28.8201 22.8234 28.8136C22.9158 28.7841 23.001 28.753 23.0789 28.7205L23.0799 28.7201C23.102 28.7108 23.1241 28.7015 23.145 28.6921C23.2203 28.6584 23.2901 28.6243 23.3511 28.5903C23.3665 28.5816 23.3808 28.5732 23.3953 28.5646C23.454 28.5302 23.5083 28.4961 23.5533 28.4642C23.5594 28.4599 23.5648 28.4558 23.5702 28.4516C23.5733 28.4493 23.5763 28.447 23.5795 28.4446C23.6228 28.4127 23.6625 28.3817 23.6924 28.3555L23.7017 28.3468C23.7382 28.3151 23.7722 28.2806 23.8036 28.2438C23.8369 28.2072 23.8751 28.1755 23.917 28.1494C23.9357 28.1315 23.9557 28.1149 23.9768 28.0997C24.0384 28.0681 24.1056 28.049 24.1744 28.0432C24.1776 28.0429 24.1806 28.0417 24.1835 28.0405C24.1857 28.0397 24.1878 28.0388 24.19 28.0383C24.191 28.0381 24.1921 28.0379 24.1931 28.0379H24.1932L24.1942 28.0376L24.1954 28.0378C24.2059 28.0371 24.2163 28.0368 24.2269 28.0368L24.4226 28.0738C24.491 28.0988 24.5531 28.1382 24.6051 28.1893C25.3865 28.974 25.7714 29.2486 27.0199 29.2486C27.1587 29.2486 27.2973 29.2399 27.4349 29.2225C27.4401 29.2219 27.445 29.221 27.45 29.2201L27.4501 29.2201L27.4501 29.2201C27.4547 29.2192 27.4594 29.2184 27.4643 29.2178C27.5946 29.2003 27.7239 29.1754 27.8514 29.1429L27.872 29.1373C28.3426 29.0134 28.7772 28.7791 29.1401 28.4537L29.1451 28.4492C29.3918 28.2283 29.605 27.9725 29.778 27.6897L29.7813 27.6845C29.818 27.6237 29.8454 27.5736 29.8641 27.5374L29.8713 27.5232C29.8823 27.5014 29.89 27.4855 29.892 27.4812L29.8947 27.4755C29.9123 27.435 29.9347 27.397 29.9616 27.3621C29.9672 27.3548 29.9738 27.3486 29.9804 27.3424L29.9805 27.3424C29.985 27.3381 29.9895 27.3339 29.9937 27.3293C30.027 27.286 30.0701 27.2513 30.1195 27.2283C30.1251 27.2251 30.1304 27.2215 30.1356 27.2179C30.1437 27.2124 30.1517 27.207 30.1605 27.2029C30.2002 27.1844 30.242 27.171 30.285 27.1629C30.3028 27.1609 30.3206 27.1598 30.3385 27.1597C30.4947 27.1432 30.65 27.1987 30.7608 27.3107C31.7386 28.2927 32.3108 28.3363 33.4113 28.3363C34.4519 28.3809 35.3625 27.6399 35.5353 26.6083C35.5353 25.9168 35.19 25.7525 35.1866 25.7514C34.941 25.6652 34.7931 25.4137 34.8366 25.156C34.88 24.8984 35.1022 24.7099 35.3623 24.7098C35.4789 24.7081 35.5949 24.6933 35.7082 24.6657C35.7291 24.661 35.7499 24.655 35.7707 24.649L35.7934 24.6425C35.8969 24.6134 35.9978 24.5758 36.0952 24.5301C37.3059 23.9627 38.3291 22.1306 38.3291 20.6995C38.3291 19.1991 36.7978 18.6336 36.7327 18.6103C36.5602 18.5488 36.431 18.4029 36.3904 18.2236C36.3498 18.0443 36.4034 17.8566 36.5325 17.7262C36.9488 17.2008 37.1406 16.531 37.0658 15.8637C37.0658 14.4089 35.2853 13.7261 35.2674 13.7193C35.0583 13.6412 34.9194 13.4409 34.9187 13.2168C34.9187 12.118 34.4356 10.0397 32.6077 10.0397C32.2931 10.0081 31.9793 10.1066 31.7385 10.3125C31.5901 10.4814 31.3541 10.5422 31.1432 10.4658C30.9354 10.3911 30.7956 10.1949 30.7924 9.97326C30.7924 9.38943 29.6817 8.34652 27.4687 8.34652C26.7103 8.30832 25.9717 8.59683 25.4382 9.13965C25.3246 9.27799 25.1498 9.35041 24.9721 9.33283C24.7945 9.31525 24.6371 9.20996 24.5526 9.05205C24.5317 9.01566 23.9351 8 21.9892 8C20.9551 8 19.864 9.07719 19.5307 9.49232C19.3638 9.69939 19.0712 9.75254 18.8427 9.61736C18.2408 9.27283 17.5686 9.07097 16.8773 9.02726C15.6772 8.95713 14.6286 9.83381 14.4794 11.032C14.473 11.4423 14.558 11.8487 14.7284 12.2217C14.8173 12.3878 14.813 12.5886 14.7172 12.7508C14.6213 12.913 14.4479 13.0129 14.2601 13.014C12.7815 13.014 11.8187 13.3185 11.1388 14.0012C9.28203 15.8668 10.3429 17.2131 10.389 17.2696C10.5198 17.4298 10.547 17.6513 10.4588 17.8385C10.3707 18.0257 10.183 18.1451 9.97678 18.1451C9.05826 18.1451 8.78275 18.4635 8.65541 18.7028C8.49301 19.1216 8.42698 19.5719 8.46245 20.0199C8.37588 20.919 8.92701 21.7564 9.78451 22.0285C10.5781 22.1311 11.3754 21.8686 11.9544 21.3139C12.1626 21.1048 12.5003 21.1048 12.7086 21.3139C12.9169 21.5231 12.9168 21.8623 12.7086 22.0715C12.0096 22.7562 11.0678 23.1327 10.0916 23.1181C9.95589 23.1181 9.84494 23.1109 9.75896 23.1031C9.62765 23.221 9.55392 23.3906 9.55695 23.5675C9.55695 25.742 12.0343 25.8663 12.1398 25.8707C12.9371 25.9121 13.7333 25.7701 14.4676 25.4556C14.6195 25.3707 14.8029 25.3649 14.9598 25.4402C15.1166 25.5154 15.2275 25.6623 15.2572 25.8343C15.2835 25.9899 15.5528 27.3567 16.8614 27.3567C17.5728 27.3711 18.2762 27.2047 18.9065 26.8732C18.8804 25.8304 19.4034 24.851 20.2827 24.2961C20.3444 23.975 20.445 23.6628 20.5823 23.3664C19.2329 22.6854 18.4157 21.2638 18.5033 19.7495C18.5033 19.4536 18.742 19.2138 19.0366 19.2138C19.3312 19.2138 19.57 19.4536 19.57 19.7495C19.57 21.5123 20.5869 22.1954 21.124 22.4333C21.6654 21.5777 22.5817 21.034 23.589 20.9708C23.9037 20.9723 24.2177 21.0022 24.5271 21.0602C24.8912 19.9986 25.9804 18.234 27.8612 18.234C27.9796 18.234 28.0898 18.2406 28.1987 18.2482L28.2031 18.2473C28.634 18.2473 29.6486 17.2481 29.6486 16.337C29.6486 16.0412 29.8874 15.8013 30.1819 15.8013C30.4765 15.8013 30.7153 16.0411 30.7153 16.337C30.6565 17.216 30.2617 18.0382 29.6133 18.6315C30.1212 18.892 30.5093 19.3394 30.6968 19.8803C30.7736 20.1642 30.608 20.4572 30.326 20.5366C30.0439 20.616 29.751 20.452 29.6697 20.1694C29.6525 20.1173 29.3603 19.3053 27.8612 19.3053C26.5704 19.3053 25.8033 20.6648 25.5482 21.3558C25.8949 21.4949 26.2183 21.6864 26.5072 21.9238C26.7238 22.1237 26.7384 22.4621 26.5397 22.68C26.3411 22.8979 26.0043 22.9131 25.7869 22.714C25.1535 22.2419 24.3769 22.0046 23.589 22.0423C22.6155 22.0423 21.8509 23.0917 21.5092 23.9011C21.7191 23.8715 21.9307 23.8558 22.1427 23.8543C22.4372 23.8543 22.676 24.0941 22.676 24.39C22.676 24.6858 22.4373 24.9257 22.1427 24.9257C20.6271 24.9257 19.9513 25.622 19.9513 27.1831L19.95 27.1896C19.95 27.191 19.9503 27.1924 19.9505 27.1939C19.9508 27.1954 19.9511 27.197 19.9511 27.1986C19.9462 27.7241 20.1209 28.2354 20.4461 28.647C20.7107 28.9025 21.0698 29.0352 21.4363 29.0124ZM30.9964 23.0219C31.16 22.0456 31.7292 21.1853 32.5619 20.6556C32.1179 20.0718 31.8748 19.3589 31.8691 18.6243C31.8502 17.7381 32.221 16.8885 32.8827 16.3021C32.5965 15.9876 32.4181 15.5894 32.3735 15.1657C32.3673 14.8699 32.6009 14.6251 32.8953 14.6185C33.1831 14.6183 33.4214 14.843 33.4396 15.1314C33.4448 15.1932 33.5604 16.1728 35.5643 16.1728C35.8588 16.1728 36.0976 16.4126 36.0976 16.7085C36.0976 17.0043 35.8589 17.2442 35.5643 17.2442C34.9605 17.2604 34.3595 17.1563 33.796 16.9378C33.2435 17.3173 32.9196 17.952 32.9356 18.6243C32.9472 19.2011 33.1646 19.7545 33.5481 20.1839C34.2002 19.9783 34.8809 19.8789 35.5643 19.8895C35.8588 19.8895 36.0976 20.1294 36.0976 20.4253C36.0976 20.7211 35.8589 20.961 35.5643 20.961C32.2888 20.961 32.0606 23.0957 32.0588 23.1172C32.0343 23.3933 31.8041 23.605 31.5281 23.6052C31.5122 23.6052 31.4963 23.6045 31.4802 23.6031C31.1869 23.5768 30.9702 23.3166 30.9964 23.0219ZM22.7257 19.1193C22.6369 19.2299 22.5079 19.3004 22.3673 19.3154C22.2266 19.3305 22.0858 19.2889 21.9757 19.1997C21.8656 19.1105 21.7954 18.9809 21.7806 18.8396C21.6394 17.4418 20.4339 16.3994 19.0368 16.4671C18.3904 16.4125 17.7569 16.6718 17.3327 17.1647C16.5493 18.154 16.7621 20.041 16.91 20.6848C16.953 20.8713 16.8936 21.0666 16.7543 21.1972C16.615 21.3278 16.4168 21.3738 16.2346 21.3179C16.0524 21.2619 15.9137 21.1125 15.8709 20.926C15.7141 20.1707 15.6679 19.3964 15.7339 18.6277C14.9258 18.6042 14.0347 18.4109 12.717 17.0873C12.5823 16.952 12.5297 16.7547 12.579 16.5699C12.6283 16.3851 12.772 16.2407 12.956 16.1912C13.1401 16.1416 13.3364 16.1945 13.4711 16.3298C14.6052 17.4689 15.2092 17.5574 15.9488 17.5586C16.067 17.1748 16.253 16.8154 16.4979 16.4977C16.8952 15.9986 17.4497 15.6503 18.0703 15.51C17.5639 14.4439 17.4298 13.2375 17.6895 12.0854C17.7354 11.8995 17.8765 11.7525 18.0597 11.6995C18.2428 11.6465 18.4402 11.6959 18.5774 11.8287C18.7145 11.9617 18.7706 12.158 18.7245 12.3438C18.7202 12.3621 18.2885 14.2232 19.2878 15.4083C21.1309 15.4675 22.6479 16.8839 22.8409 18.7261C22.856 18.8673 22.8146 19.0088 22.7257 19.1193ZM28.904 15.1944C27.9352 15.2089 26.987 14.914 26.1959 14.3523C25.9047 14.7114 25.7205 15.1458 25.6644 15.6054C25.6111 16.0642 25.7705 16.5222 26.0968 16.8476C26.2314 16.9829 26.2841 17.1802 26.2348 17.365C26.1855 17.5499 26.0417 17.6943 25.8577 17.7438C25.6737 17.7933 25.4773 17.7404 25.3426 17.6051C24.7925 17.0543 24.5204 16.2829 24.6023 15.507C24.6842 14.7969 24.9765 14.1278 25.4413 13.5864C24.9231 12.8302 24.6608 11.9268 24.6929 11.0094C24.6929 10.7136 24.9317 10.4737 25.2262 10.4737C25.5208 10.4737 25.7596 10.7135 25.7596 11.0094C25.7113 11.8168 25.9841 12.6105 26.5181 13.216L26.5229 13.2192C26.5243 13.2207 26.5252 13.2224 26.5261 13.2241C26.527 13.2258 26.5279 13.2274 26.5292 13.2288C27.1753 13.8252 28.027 14.1458 28.9042 14.123C29.1987 14.123 29.4375 14.3628 29.4375 14.6587C29.4375 14.9546 29.1986 15.1944 28.904 15.1944ZM25.7878 25.3157C26.278 24.9154 26.8684 24.6583 27.4944 24.5726C27.6752 23.0907 28.6509 22.6769 29.1926 22.6769C29.4846 22.6769 29.7223 22.913 29.7257 23.2064C29.729 23.4998 29.4968 23.7412 29.2048 23.748C29.1381 23.7527 28.6988 23.8199 28.5682 24.5982C29.212 24.7365 29.7988 25.068 30.2506 25.549C30.3747 25.6943 30.4122 25.895 30.3491 26.0756C30.286 26.2561 30.1317 26.3891 29.9445 26.4245C29.7572 26.4598 29.5654 26.3921 29.4413 26.2469C29.0605 25.8531 28.5421 25.6235 27.9957 25.6069C27.4546 25.6009 26.9275 25.7795 26.5004 26.1133C26.2809 26.308 25.946 26.2884 25.7504 26.0695C25.5547 25.8504 25.5715 25.514 25.7878 25.3157ZM29.3225 33.891C29.1306 32.8354 28.7684 31.8182 28.2502 30.8798C28.2386 30.8604 28.2271 30.8408 28.2157 30.8212L28.2156 30.8212C28.1888 30.7753 28.162 30.7295 28.1335 30.6861C28.1083 30.6477 28.0821 30.6121 28.0558 30.5765L28.0558 30.5765L28.0557 30.5763C28.0433 30.5596 28.031 30.5428 28.0188 30.5258C27.9632 30.4486 27.9075 30.3716 27.8484 30.3C27.8404 30.2903 27.8322 30.2813 27.8239 30.2723C27.8205 30.2685 27.8171 30.2648 27.8137 30.261C27.8105 30.2574 27.8072 30.2537 27.8041 30.25C27.7999 30.2508 27.7957 30.2512 27.7915 30.2517C27.7898 30.2519 27.788 30.2521 27.7863 30.2523C27.7843 30.2526 27.7823 30.2529 27.7803 30.2532C27.7147 30.2642 27.6473 30.2724 27.5794 30.2806C27.3941 30.3057 27.2074 30.319 27.0204 30.3203C26.8415 30.3203 26.6744 30.3144 26.5176 30.3029C26.5111 30.3024 26.5051 30.3016 26.4991 30.3008C26.4934 30.3 26.4878 30.2992 26.4816 30.2987C26.3391 30.2872 26.203 30.2723 26.0765 30.2515L26.0672 30.2495C25.3676 30.1394 24.7211 29.8088 24.2209 29.3054C23.6321 29.716 22.9475 29.9663 22.2338 30.0322C22.2288 30.0329 22.2242 30.0336 22.2195 30.0344L22.2194 30.0344C22.2144 30.0353 22.2094 30.0361 22.204 30.0368C21.5968 30.6351 21.273 31.4654 21.3139 32.3187C21.3139 33.63 22.0842 34.2853 22.9764 35.0436L22.9777 35.0447C23.8237 35.7643 24.7705 36.5696 24.9615 38H29.7673C29.7386 36.6221 29.5905 35.2493 29.3248 33.8971L29.3225 33.891ZM36.4581 25.7421C36.4572 25.7382 36.4563 25.7343 36.455 25.7309C36.6568 25.9079 36.8284 26.1168 36.9631 26.3495C37.961 28.0856 36.7269 30.6844 34.212 32.1427C33.0032 32.812 31.6566 33.1911 30.2775 33.2505C30.0315 32.0597 29.5634 30.9265 28.8981 29.9105L28.8928 29.9019C29.5364 29.5843 30.0913 29.1109 30.5074 28.5243C30.626 28.6208 30.7418 28.7053 30.8562 28.782C30.859 28.7838 30.8619 28.7861 30.8648 28.7883C30.8678 28.7906 30.8708 28.793 30.8738 28.7949C30.9817 28.8662 31.0932 28.9318 31.2078 28.9917C31.2115 28.9936 31.2153 28.996 31.219 28.9983C31.223 29.0008 31.2269 29.0032 31.2307 29.0052C31.3328 29.0572 31.4376 29.1039 31.5445 29.145C31.5504 29.1473 31.5563 29.1501 31.5622 29.1529C31.5686 29.1559 31.5749 29.159 31.5812 29.1613C31.6948 29.2042 31.8107 29.2406 31.9283 29.2707L31.93 29.2712C32.045 29.3006 32.1605 29.3236 32.2774 29.3419L32.2827 29.3429C32.6569 29.3935 33.0344 29.4152 33.4118 29.4079C35.0384 29.4506 36.4259 28.2333 36.6024 26.6085C36.6018 26.4643 36.5899 26.3204 36.5666 26.1781C36.5653 26.1699 36.5641 26.1616 36.5629 26.1534C36.5602 26.1354 36.5576 26.1175 36.5543 26.1C36.5324 25.982 36.5012 25.866 36.461 25.753C36.4598 25.7496 36.4589 25.7459 36.4581 25.7421Z" fill="#3D5AFE"/>
</svg>
