<svg width="10" height="13" viewBox="0 0 10 13" fill="none" xmlns="http://www.w3.org/2000/svg">
<path d="M5.94413 11.3428L5.94002 11.3615L5.94002 3.31941L8.47822 5.84756C8.60214 5.97136 8.77 6.03927 8.94619 6.03927C9.12238 6.03927 9.28908 5.97136 9.41329 5.84756L9.80756 5.45418C9.93148 5.33048 10 5.16564 10 4.98986C10 4.81398 9.93197 4.64905 9.80805 4.52535L5.46705 0.191612C5.34264 0.0674224 5.17692 -0.000486144 5.00064 2.39926e-06C4.82337 -0.000486159 4.65756 0.0674224 4.53334 0.191612L0.191948 4.52535C0.0681265 4.64905 -2.10422e-07 4.81389 -2.18114e-07 4.98986C-2.25797e-07 5.16564 0.0682237 5.33048 0.191948 5.45418L0.58622 5.84756C0.709944 5.97136 0.875169 6.03927 1.05136 6.03927C1.22745 6.03927 1.38396 5.97136 1.50779 5.84756L4.06018 3.29088L4.06018 11.3518C4.06018 11.714 4.37291 12.0183 4.73557 12.0183L5.29321 12.0183C5.65586 12.0183 5.94413 11.705 5.94413 11.3428Z" fill="#11C15B"/>
</svg>
