<svg width="19" height="12" viewBox="0 0 19 12" fill="none" xmlns="http://www.w3.org/2000/svg">
<path d="M1.11534 12C1.26183 12.0002 1.40692 11.9712 1.54226 11.9146C1.67761 11.8581 1.80054 11.7751 1.904 11.6705L6.6789 6.84098L9.23615 9.42052C9.33971 9.52499 9.46267 9.60786 9.59798 9.6644C9.7333 9.72094 9.87834 9.75004 10.0248 9.75004C10.1713 9.75004 10.3163 9.72094 10.4516 9.6644C10.5869 9.60786 10.7099 9.52499 10.8135 9.42052L16.3315 3.84145L16.3311 6.375C16.3311 6.67337 16.4486 6.95952 16.6577 7.17049C16.8669 7.38147 17.1506 7.5 17.4464 7.5C17.7422 7.5 18.0258 7.38147 18.235 7.17049C18.4442 6.95952 18.5617 6.67337 18.5617 6.375L18.5625 1.125C18.5625 0.826631 18.445 0.540483 18.2358 0.329505C18.0267 0.118526 17.743 0 17.4472 0H12.2425C11.9467 0 11.663 0.118526 11.4538 0.329505C11.2447 0.540483 11.1272 0.826631 11.1272 1.125C11.1272 1.42337 11.2447 1.70952 11.4538 1.9205C11.663 2.13147 11.9467 2.25 12.2425 2.25H14.7546L10.0248 7.03402L7.46756 4.45448C7.364 4.35001 7.24104 4.26714 7.10573 4.2106C6.97041 4.15406 6.82537 4.12496 6.6789 4.12496C6.53244 4.12496 6.3874 4.15406 6.25208 4.2106C6.11677 4.26714 5.99381 4.35001 5.89025 4.45448L0.326684 10.0795C0.170699 10.2368 0.0644704 10.4373 0.0214329 10.6555C-0.0216045 10.8737 0.00048209 11.1 0.0848998 11.3055C0.169318 11.5111 0.312275 11.6868 0.495692 11.8104C0.67911 11.934 0.894749 12 1.11534 12Z" fill="#0090F1"/>
</svg>
