<svg width="46" height="46" viewBox="0 0 46 46" fill="none" xmlns="http://www.w3.org/2000/svg">
<circle opacity="0.1" cx="23" cy="23" r="23" fill="#F60002"/>
<path fill-rule="evenodd" clip-rule="evenodd" d="M19.466 17.1591C19.2075 17.1252 18.9607 17.2763 18.8727 17.5217L15.8866 25.8471H10.909C10.017 24.5156 9.38133 23.1896 9.172 21.9142C8.71937 19.1353 9.16091 16.8437 10.4869 15.1039C11.824 13.3475 13.8598 12.3452 16.7107 12.0402C16.9866 12.0132 17.2341 12 17.485 12C19.4986 12 21.5344 12.7507 23.0953 14.0192C24.6584 12.7507 26.6928 12 28.7106 12C28.9587 12 29.209 12.0132 29.4841 12.0409C32.3351 12.3459 34.3688 13.3482 35.7079 15.1046C37.0339 16.8444 37.4755 19.136 37.0229 21.9149C36.8163 23.1708 36.1966 24.476 35.326 25.7868H29.3933C29.1507 25.7868 28.9359 25.9448 28.8638 26.177L28.3356 27.8829L27.1579 19.4888C27.1205 19.2247 26.9008 19.0244 26.6346 19.0119C26.3684 19.0008 26.1307 19.1783 26.069 19.4375L24.4914 26.0661L23.5674 22.0576C23.5105 21.8102 23.2929 21.6334 23.0392 21.6279C22.7841 21.6216 22.5602 21.7894 22.4923 22.0341L20.8329 28.0153L19.9471 17.6617C19.9249 17.4017 19.7245 17.1931 19.466 17.1591ZM28.0863 30.9716C28.3448 30.9924 28.584 30.8308 28.6609 30.5827L29.8011 26.8958H34.5326C32.6846 29.3184 30.1338 31.7195 27.9012 33.8197C27.9012 33.8197 26.0144 35.7134 25.4481 36.1993C25.0232 36.5653 24.0979 37.3007 23.0977 37.3007C22.0954 37.3007 21.1728 36.5653 20.7451 36.1993C20.1788 35.7141 18.292 33.8197 18.292 33.8197L18.2903 33.8181C16.0768 31.7355 13.5504 29.3587 11.7071 26.9568H16.2763C16.5106 26.9568 16.7193 26.8099 16.7983 26.5895L19.0593 20.2873L19.9916 31.1809C20.0145 31.4478 20.2259 31.6606 20.4928 31.6855C20.5101 31.6876 20.5274 31.6883 20.5448 31.6883C20.7915 31.6883 21.0113 31.524 21.0785 31.2821L22.9777 24.4358L23.9426 28.6225C24.0008 28.8734 24.2233 29.0515 24.4812 29.0522H24.4833C24.7397 29.0522 24.9629 28.8762 25.0225 28.6259L26.4678 22.5532L27.5817 30.4961C27.6177 30.7532 27.8277 30.9508 28.0863 30.9716Z" fill="#F60002" fill-opacity="0.65"/>
</svg>
